<mxfile host="app.diagrams.net" modified="2022-09-09T17:40:04.301Z" agent="5.0 (Windows)" etag="EtzSNjURurQCuhWPP1vE" version="20.3.0" type="github" pages="4">
  <diagram id="k6-KurRkUOqiSPLHGTi7" name="Contents">
    <mxGraphModel dx="1209" dy="806" grid="1" gridSize="10" guides="1" tooltips="1" connect="1" arrows="1" fold="1" page="1" pageScale="1" pageWidth="1169" pageHeight="827" math="0" shadow="0">
      <root>
        <mxCell id="aGLZKepbrOK6cXMhk4E4-0" />
        <mxCell id="aGLZKepbrOK6cXMhk4E4-1" parent="aGLZKepbrOK6cXMhk4E4-0" />
        <mxCell id="ziIdKJr02knN9KNG7Chd-1" value="&lt;h1 style=&quot;font-size: 30px&quot;&gt;HYPNOS P&amp;amp;IDs&lt;/h1&gt;&lt;h1&gt;Contents:&lt;/h1&gt;&lt;h1&gt;&lt;span style=&quot;font-weight: normal&quot;&gt;1. Filling system&lt;/span&gt;&lt;/h1&gt;&lt;h1&gt;&lt;span style=&quot;font-weight: normal&quot;&gt;2. Flight feed system&lt;/span&gt;&lt;/h1&gt;&lt;h1 style=&quot;font-size: 20px&quot;&gt;&lt;div style=&quot;font-weight: 400 ; font-size: 24px&quot;&gt;3. Test feed system&lt;/div&gt;&lt;/h1&gt;&lt;h1 style=&quot;font-size: 20px&quot;&gt;&lt;font style=&quot;font-size: 20px&quot;&gt;Key Symbols&lt;/font&gt;&lt;/h1&gt;&lt;div&gt;&lt;ul style=&quot;font-size: 20px&quot;&gt;&lt;li&gt;&lt;font style=&quot;font-size: 20px&quot;&gt;Solid arrows marked with a size signifies a pipe with that outer diameter. It will always have a swagelok nut &amp;amp; ferrule at either end&lt;/font&gt;&lt;/li&gt;&lt;li&gt;&lt;font style=&quot;font-size: 20px&quot;&gt;Unmarked solid arrows represent a connection e.g. 2 parts screwing together&lt;/font&gt;&lt;/li&gt;&lt;li&gt;&lt;font style=&quot;font-size: 20px&quot;&gt;Dotted arrows represent signals&lt;/font&gt;&lt;/li&gt;&lt;li&gt;&lt;font style=&quot;font-size: 20px&quot;&gt;A circle with a horizontal line represents an instrument connected to the control room. The first letter stands for transmitter, the second the type. Types are: P (pressure), T (temperature). The second line is an identifying number&lt;/font&gt;&lt;/li&gt;&lt;li&gt;A square with a diamond inside represents a programmable logic controller. The first letter represents the type, the second stands for controller. The second line is an identifying number&lt;/li&gt;&lt;/ul&gt;&lt;/div&gt;" style="text;html=1;strokeColor=none;fillColor=default;spacing=5;spacingTop=-20;whiteSpace=wrap;overflow=hidden;rounded=0;" parent="aGLZKepbrOK6cXMhk4E4-1" vertex="1">
          <mxGeometry x="40" y="40" width="930" height="730" as="geometry" />
        </mxCell>
        <mxCell id="MOgN7wW8o-6PX971gVoD-0" value="" style="group" parent="aGLZKepbrOK6cXMhk4E4-1" vertex="1" connectable="0">
          <mxGeometry x="980" y="340" width="60" height="200" as="geometry" />
        </mxCell>
        <mxCell id="DJLehqkINbFkV_aUMNpy-0" value="&lt;table cellpadding=&quot;4&quot; cellspacing=&quot;0&quot; border=&quot;0&quot; style=&quot;font-size: 1em ; width: 100% ; height: 100%&quot;&gt;&lt;tbody&gt;&lt;tr&gt;&lt;td&gt;TI&lt;/td&gt;&lt;/tr&gt;&lt;tr&gt;&lt;td&gt;##&lt;/td&gt;&lt;/tr&gt;&lt;/tbody&gt;&lt;/table&gt; " style="html=1;outlineConnect=0;align=center;dashed=0;aspect=fixed;shape=mxgraph.pid2inst.discInst;mounting=room;fontColor=#000000;strokeColor=#000000;strokeWidth=1;fillColor=default;" parent="MOgN7wW8o-6PX971gVoD-0" vertex="1">
          <mxGeometry y="90" width="50" height="50" as="geometry" />
        </mxCell>
        <mxCell id="x3hQ55ikFrB5lZBJHxmO-0" value="3/8&quot;" style="endArrow=classic;html=1;rounded=0;fontSize=11;" parent="MOgN7wW8o-6PX971gVoD-0" edge="1">
          <mxGeometry width="50" height="50" relative="1" as="geometry">
            <mxPoint as="sourcePoint" />
            <mxPoint x="60" as="targetPoint" />
            <mxPoint as="offset" />
          </mxGeometry>
        </mxCell>
        <mxCell id="x3hQ55ikFrB5lZBJHxmO-1" value="" style="endArrow=classic;html=1;rounded=0;fontSize=11;" parent="MOgN7wW8o-6PX971gVoD-0" edge="1">
          <mxGeometry width="50" height="50" relative="1" as="geometry">
            <mxPoint y="40" as="sourcePoint" />
            <mxPoint x="60" y="40" as="targetPoint" />
          </mxGeometry>
        </mxCell>
        <mxCell id="x3hQ55ikFrB5lZBJHxmO-2" value="" style="endArrow=classic;html=1;rounded=0;fontSize=11;dashed=1;" parent="MOgN7wW8o-6PX971gVoD-0" edge="1">
          <mxGeometry width="50" height="50" relative="1" as="geometry">
            <mxPoint y="70" as="sourcePoint" />
            <mxPoint x="60" y="70" as="targetPoint" />
          </mxGeometry>
        </mxCell>
        <mxCell id="JgZyb19WhZ2yH65wuL6e-0" value="&lt;table cellpadding=&quot;4&quot; cellspacing=&quot;0&quot; border=&quot;0&quot; style=&quot;font-size: 1em ; width: 100% ; height: 100%&quot;&gt;&lt;tbody&gt;&lt;tr&gt;&lt;td&gt;TC&lt;/td&gt;&lt;/tr&gt;&lt;tr&gt;&lt;td&gt;##&lt;/td&gt;&lt;/tr&gt;&lt;/tbody&gt;&lt;/table&gt; " style="html=1;outlineConnect=0;align=center;dashed=0;aspect=fixed;shape=mxgraph.pid2inst.progLogCont;mounting=field;fontSize=11;fillColor=default;" parent="MOgN7wW8o-6PX971gVoD-0" vertex="1">
          <mxGeometry y="150" width="50" height="50" as="geometry" />
        </mxCell>
      </root>
    </mxGraphModel>
  </diagram>
  <diagram id="Ib7LhURrhSc_TggTuhZg" name="Filling system">
    <mxGraphModel dx="1209" dy="806" grid="1" gridSize="10" guides="1" tooltips="1" connect="1" arrows="1" fold="1" page="1" pageScale="1" pageWidth="1169" pageHeight="827" math="0" shadow="0">
      <root>
        <mxCell id="0" />
        <mxCell id="1" parent="0" />
        <mxCell id="PHy7201BnxDDZTUnav_f-2" value="&lt;b&gt;&lt;font&gt;&lt;u style=&quot;font-size: 20px&quot;&gt;HYPNOS FILL SYSTEM CONFIG P&amp;amp;ID&lt;/u&gt;&lt;br&gt;&lt;span style=&quot;font-size: 20px&quot;&gt;REV 1.5&lt;/span&gt;&lt;br&gt;&lt;font style=&quot;font-size: 14px&quot;&gt;LUC PAOLI&lt;/font&gt;&lt;br&gt;&lt;/font&gt;&lt;/b&gt;" style="text;html=1;strokeColor=none;fillColor=none;align=center;verticalAlign=middle;whiteSpace=wrap;rounded=0;fontFamily=Helvetica;" parent="1" vertex="1">
          <mxGeometry x="16.04" y="10" width="262.63" height="88" as="geometry" />
        </mxCell>
        <mxCell id="PHy7201BnxDDZTUnav_f-101" value="" style="group" parent="1" vertex="1" connectable="0">
          <mxGeometry x="55.999999999999964" y="110" width="142.59000000000003" height="206.28" as="geometry" />
        </mxCell>
        <mxCell id="PHy7201BnxDDZTUnav_f-99" value="" style="shape=mxgraph.pid.vessels.vessel_(dished_ends,_electrical_heating);pointerEvents=1;align=center;verticalLabelPosition=middle;verticalAlign=middle;dashed=0;fontColor=#000000;strokeColor=#000000;strokeWidth=1;fillColor=default;labelPosition=center;horizontal=1;html=1;" parent="PHy7201BnxDDZTUnav_f-101" vertex="1">
          <mxGeometry x="20.000000000000057" width="122.59" height="206.28" as="geometry" />
        </mxCell>
        <mxCell id="PHy7201BnxDDZTUnav_f-100" value="&lt;span style=&quot;&quot;&gt;TEMPERATURE&lt;/span&gt;&lt;br style=&quot;&quot;&gt;&lt;span style=&quot;&quot;&gt;CONTROLLED&lt;/span&gt;&lt;br style=&quot;&quot;&gt;&lt;span style=&quot;&quot;&gt;FILL TANK&lt;/span&gt;" style="text;strokeColor=none;fillColor=none;align=center;verticalAlign=middle;spacingLeft=4;spacingRight=4;overflow=hidden;points=[[0,0.5],[1,0.5]];portConstraint=eastwest;rotatable=0;fontColor=#000000;html=1;" parent="PHy7201BnxDDZTUnav_f-101" vertex="1">
          <mxGeometry y="76.91" width="140" height="60" as="geometry" />
        </mxCell>
        <mxCell id="PHy7201BnxDDZTUnav_f-72" style="edgeStyle=orthogonalEdgeStyle;rounded=0;orthogonalLoop=1;jettySize=auto;html=1;dashed=1;entryX=0;entryY=0.5;entryDx=0;entryDy=0;exitX=1.001;exitY=0.603;exitDx=0;exitDy=0;exitPerimeter=0;" parent="1" source="PHy7201BnxDDZTUnav_f-99" target="PHy7201BnxDDZTUnav_f-109" edge="1">
          <mxGeometry relative="1" as="geometry">
            <mxPoint x="174.29" y="285" as="sourcePoint" />
            <mxPoint x="214.08999999999995" y="285" as="targetPoint" />
            <Array as="points">
              <mxPoint x="198.29" y="285" />
            </Array>
          </mxGeometry>
        </mxCell>
        <mxCell id="PHy7201BnxDDZTUnav_f-45" value="1/4&quot;NPT -&lt;br&gt;1/2&quot;SW" style="verticalLabelPosition=middle;align=left;dashed=0;html=1;verticalAlign=middle;shape=mxgraph.pid.piping.concentric_reducer;direction=north;horizontal=1;labelPosition=right;fontFamily=Helvetica;" parent="1" vertex="1">
          <mxGeometry x="111.15464281746327" y="420.49103877268186" width="32.26078393601776" height="32.791762013729986" as="geometry" />
        </mxCell>
        <mxCell id="PHy7201BnxDDZTUnav_f-47" value="1/2&quot;" style="edgeStyle=orthogonalEdgeStyle;rounded=0;orthogonalLoop=1;jettySize=auto;html=1;fontFamily=Helvetica;entryX=0;entryY=0.5;entryDx=0;entryDy=0;entryPerimeter=0;" parent="1" source="PHy7201BnxDDZTUnav_f-45" target="PHy7201BnxDDZTUnav_f-48" edge="1">
          <mxGeometry x="85.68999999999997" y="128.57300673606858" as="geometry">
            <mxPoint x="127.3426315789475" y="484.23809456280037" as="targetPoint" />
          </mxGeometry>
        </mxCell>
        <mxCell id="PHy7201BnxDDZTUnav_f-48" value="1/2&quot; SW&lt;br&gt;HOSE" style="verticalLabelPosition=middle;align=left;dashed=0;html=1;verticalAlign=middle;shape=mxgraph.pid.piping.flexible_hose;pointerEvents=1;direction=south;fontFamily=Helvetica;horizontal=1;labelPosition=right;" parent="1" vertex="1">
          <mxGeometry x="105.7507380203134" y="499.99549940374516" width="43.08427694655171" height="81.97940503432496" as="geometry" />
        </mxCell>
        <mxCell id="PHy7201BnxDDZTUnav_f-52" value="3/8&quot; TEE" style="shape=tee;whiteSpace=wrap;html=1;rotation=0;dx=12;dy=12;fontFamily=Helvetica;direction=west;flipV=0;verticalAlign=top;labelPosition=center;verticalLabelPosition=bottom;align=center;" parent="1" vertex="1">
          <mxGeometry x="217.2870155791277" y="670.5050949173301" width="61.3386553160946" height="48.6675933864054" as="geometry" />
        </mxCell>
        <mxCell id="PHy7201BnxDDZTUnav_f-53" value="3/8&quot;" style="edgeStyle=orthogonalEdgeStyle;rounded=0;orthogonalLoop=1;jettySize=auto;html=1;entryX=0;entryY=0;entryDx=61.3386553160946;entryDy=6;entryPerimeter=0;fontFamily=Helvetica;exitX=1;exitY=0.5;exitDx=0;exitDy=0;exitPerimeter=0;" parent="1" source="PHy7201BnxDDZTUnav_f-79" target="PHy7201BnxDDZTUnav_f-52" edge="1">
          <mxGeometry x="37.29" y="-20" as="geometry">
            <mxPoint x="181.7530726394514" y="650.0526315789473" as="sourcePoint" />
            <mxPoint x="-45" y="-10" as="offset" />
          </mxGeometry>
        </mxCell>
        <mxCell id="PHy7201BnxDDZTUnav_f-54" value="1/8&quot;NPT -&lt;br&gt;3/8&quot;SW" style="verticalLabelPosition=middle;align=left;dashed=0;html=1;verticalAlign=middle;shape=mxgraph.pid.piping.concentric_reducer;direction=north;fontFamily=Helvetica;horizontal=1;labelPosition=right;" parent="1" vertex="1">
          <mxGeometry x="231.82799596673945" y="580.5720710993651" width="32.26078393601776" height="32.791762013729986" as="geometry" />
        </mxCell>
        <mxCell id="PHy7201BnxDDZTUnav_f-55" value="3/8&quot;" style="edgeStyle=orthogonalEdgeStyle;rounded=0;orthogonalLoop=1;jettySize=auto;html=1;entryX=0;entryY=0.5;entryDx=0;entryDy=0;entryPerimeter=0;fontFamily=Helvetica;" parent="1" source="PHy7201BnxDDZTUnav_f-52" target="PHy7201BnxDDZTUnav_f-54" edge="1">
          <mxGeometry x="-40.775628292610456" y="107.30889161053278" as="geometry" />
        </mxCell>
        <mxCell id="PHy7201BnxDDZTUnav_f-57" value="" style="edgeStyle=orthogonalEdgeStyle;rounded=0;orthogonalLoop=1;jettySize=auto;html=1;fontFamily=Helvetica;" parent="1" source="PHy7201BnxDDZTUnav_f-54" edge="1">
          <mxGeometry x="-40.775628292610456" y="185.22442743417025" as="geometry">
            <mxPoint x="247.89000000000024" y="547.7798885710979" as="targetPoint" />
          </mxGeometry>
        </mxCell>
        <mxCell id="PHy7201BnxDDZTUnav_f-58" value="1/8&quot; BSPP -&lt;br&gt;3/8&quot;SW" style="verticalLabelPosition=middle;align=left;dashed=0;html=1;verticalAlign=middle;shape=mxgraph.pid.piping.concentric_reducer;direction=north;fontFamily=Helvetica;horizontal=1;labelPosition=right;" parent="1" vertex="1">
          <mxGeometry x="352.4381367951486" y="580.5720710993651" width="32.26078393601776" height="32.791762013729986" as="geometry" />
        </mxCell>
        <mxCell id="PHy7201BnxDDZTUnav_f-59" value="TO ATM" style="edgeStyle=orthogonalEdgeStyle;rounded=0;orthogonalLoop=1;jettySize=auto;html=1;fontFamily=Helvetica;verticalAlign=middle;exitX=0.987;exitY=0.721;exitDx=0;exitDy=0;exitPerimeter=0;" parent="1" source="PHy7201BnxDDZTUnav_f-60" edge="1">
          <mxGeometry x="43.620646624522244" y="61.67753827311695" as="geometry">
            <mxPoint x="370.8176960939081" y="430.2384690753216" as="targetPoint" />
            <Array as="points">
              <mxPoint x="370.817696093908" y="430.23846907532163" />
            </Array>
          </mxGeometry>
        </mxCell>
        <mxCell id="PHy7201BnxDDZTUnav_f-60" value="NOSWIZARDS&lt;br&gt;SPRV" style="verticalLabelPosition=middle;align=left;html=1;verticalAlign=middle;pointerEvents=1;dashed=0;shape=mxgraph.pid2valves.valve;valveType=gate;actuator=spring;direction=north;horizontal=1;labelPosition=right;fontFamily=Helvetica;" parent="1" vertex="1">
          <mxGeometry x="325.2852249266044" y="483.540814451929" width="62.409168090084165" height="63.43635639926518" as="geometry" />
        </mxCell>
        <mxCell id="PHy7201BnxDDZTUnav_f-61" value="" style="edgeStyle=orthogonalEdgeStyle;rounded=0;orthogonalLoop=1;jettySize=auto;html=1;entryX=-0.043;entryY=0.691;entryDx=0;entryDy=0;entryPerimeter=0;fontFamily=Helvetica;" parent="1" source="PHy7201BnxDDZTUnav_f-58" target="PHy7201BnxDDZTUnav_f-60" edge="1">
          <mxGeometry x="-116.95626947390971" y="182.59184935701165" as="geometry" />
        </mxCell>
        <mxCell id="PHy7201BnxDDZTUnav_f-62" value="3/8&quot;" style="edgeStyle=orthogonalEdgeStyle;rounded=0;orthogonalLoop=1;jettySize=auto;html=1;entryX=0;entryY=0.5;entryDx=0;entryDy=0;entryPerimeter=0;fontFamily=Helvetica;" parent="1" source="PHy7201BnxDDZTUnav_f-63" target="PHy7201BnxDDZTUnav_f-58" edge="1">
          <mxGeometry x="243.04681661773625" y="429.36094304960204" as="geometry" />
        </mxCell>
        <mxCell id="PHy7201BnxDDZTUnav_f-63" value="3/8&quot; TEE" style="shape=tee;whiteSpace=wrap;html=1;rotation=0;dx=12;dy=12;fontFamily=Helvetica;direction=west;labelPosition=center;verticalLabelPosition=bottom;align=center;verticalAlign=top;" parent="1" vertex="1">
          <mxGeometry x="337.89942829372933" y="670.5050949173301" width="61.3386553160946" height="48.6675933864054" as="geometry" />
        </mxCell>
        <mxCell id="PHy7201BnxDDZTUnav_f-64" value="3/8&quot;" style="edgeStyle=orthogonalEdgeStyle;rounded=0;orthogonalLoop=1;jettySize=auto;html=1;entryX=0;entryY=0;entryDx=61.3386553160946;entryDy=6;entryPerimeter=0;exitX=0;exitY=0;exitDx=0;exitDy=6;exitPerimeter=0;fontFamily=Helvetica;" parent="1" source="PHy7201BnxDDZTUnav_f-52" target="PHy7201BnxDDZTUnav_f-63" edge="1">
          <mxGeometry x="232.6870155791277" y="431.9935211267607" as="geometry" />
        </mxCell>
        <mxCell id="PHy7201BnxDDZTUnav_f-65" value="3/8&quot;SW -&lt;br&gt;3/8&quot;BSPP" style="verticalLabelPosition=top;align=center;dashed=0;html=1;verticalAlign=bottom;shape=mxgraph.pid.piping.concentric_reducer;direction=east;fontFamily=Helvetica;labelPosition=center;" parent="1" vertex="1">
          <mxGeometry x="447.28621699196776" y="697.1920469268703" width="32.26078393601776" height="32.791762013729986" as="geometry" />
        </mxCell>
        <mxCell id="PHy7201BnxDDZTUnav_f-66" value="3/8&quot;" style="edgeStyle=orthogonalEdgeStyle;rounded=0;orthogonalLoop=1;jettySize=auto;html=1;entryX=0;entryY=0.5;entryDx=0;entryDy=0;entryPerimeter=0;exitX=0;exitY=0;exitDx=0;exitDy=6;exitPerimeter=0;fontFamily=Helvetica;" parent="1" source="PHy7201BnxDDZTUnav_f-63" target="PHy7201BnxDDZTUnav_f-65" edge="1">
          <mxGeometry x="243.04681661773625" y="429.36094304960204" as="geometry" />
        </mxCell>
        <mxCell id="PHy7201BnxDDZTUnav_f-67" value="" style="edgeStyle=orthogonalEdgeStyle;rounded=0;orthogonalLoop=1;jettySize=auto;html=1;entryX=1;entryY=0.5;entryDx=0;entryDy=0;entryPerimeter=0;fontFamily=Helvetica;verticalAlign=middle;" parent="1" source="PHy7201BnxDDZTUnav_f-68" target="PHy7201BnxDDZTUnav_f-45" edge="1">
          <mxGeometry x="85.68999999999997" y="80.44947948560929" as="geometry">
            <Array as="points">
              <mxPoint x="127.28999999999999" y="400" />
              <mxPoint x="127.28999999999999" y="400" />
            </Array>
          </mxGeometry>
        </mxCell>
        <mxCell id="PHy7201BnxDDZTUnav_f-68" value="BS341 NO. 13&lt;br&gt;CONNECTOR" style="verticalLabelPosition=middle;align=left;dashed=0;html=1;verticalAlign=middle;shape=mxgraph.pid.piping.concentric_reducer;direction=south;horizontal=1;labelPosition=right;fontFamily=Helvetica;" parent="1" vertex="1">
          <mxGeometry x="111.15988891748592" y="352.478852612241" width="32.26078393601776" height="32.791762013729986" as="geometry" />
        </mxCell>
        <mxCell id="PHy7201BnxDDZTUnav_f-73" value="&lt;table style=&quot;font-size: 1em ; width: 100% ; height: 100%&quot; cellspacing=&quot;0&quot; cellpadding=&quot;4&quot; border=&quot;0&quot;&gt;&lt;tbody&gt;&lt;tr&gt;&lt;td&gt;PT&lt;/td&gt;&lt;/tr&gt;&lt;tr&gt;&lt;td&gt;05&lt;/td&gt;&lt;/tr&gt;&lt;/tbody&gt;&lt;/table&gt; " style="html=1;outlineConnect=0;align=center;dashed=0;aspect=fixed;shape=mxgraph.pid2inst.discInst;mounting=room" parent="1" vertex="1">
          <mxGeometry x="220.96" y="493.78" width="54" height="54" as="geometry" />
        </mxCell>
        <mxCell id="PHy7201BnxDDZTUnav_f-79" value="1/2&quot;SW -&lt;br&gt;3/8&quot;SW" style="verticalLabelPosition=middle;align=left;dashed=0;html=1;verticalAlign=middle;shape=mxgraph.pid.piping.concentric_reducer;direction=south;horizontal=1;labelPosition=right;fontFamily=Helvetica;" parent="1" vertex="1">
          <mxGeometry x="111.1546428174633" y="614.9010387726819" width="32.26078393601776" height="32.791762013729986" as="geometry" />
        </mxCell>
        <mxCell id="PHy7201BnxDDZTUnav_f-80" value="&lt;font color=&quot;#000000&quot;&gt;1/2&quot;&lt;/font&gt;" style="edgeStyle=orthogonalEdgeStyle;rounded=0;orthogonalLoop=1;jettySize=auto;html=1;entryX=0;entryY=0.5;entryDx=0;entryDy=0;entryPerimeter=0;fontColor=#FF0000;" parent="1" source="PHy7201BnxDDZTUnav_f-48" target="PHy7201BnxDDZTUnav_f-79" edge="1">
          <mxGeometry x="0.2178" relative="1" as="geometry">
            <mxPoint as="offset" />
          </mxGeometry>
        </mxCell>
        <mxCell id="oJNI01VQkAOPe_WOcS0w-2" style="edgeStyle=orthogonalEdgeStyle;rounded=0;orthogonalLoop=1;jettySize=auto;html=1;entryX=1;entryY=0.5;entryDx=0;entryDy=0;entryPerimeter=0;" parent="1" source="PHy7201BnxDDZTUnav_f-81" target="PHy7201BnxDDZTUnav_f-83" edge="1">
          <mxGeometry relative="1" as="geometry">
            <mxPoint x="596.9994282937291" y="713.6626883037356" as="targetPoint" />
          </mxGeometry>
        </mxCell>
        <mxCell id="PHy7201BnxDDZTUnav_f-81" value="&lt;div&gt;3/8&quot; FILL&lt;/div&gt;&lt;div&gt;BALL VALVE&lt;/div&gt;" style="verticalLabelPosition=bottom;align=center;html=1;verticalAlign=top;pointerEvents=1;dashed=0;shape=mxgraph.pid2valves.valve;valveType=ball;direction=east;fontFamily=Helvetica;horizontal=1;labelPosition=center;" parent="1" vertex="1">
          <mxGeometry x="507.2909977266518" y="697.1959587950874" width="56.43072454669671" height="32.31880695652174" as="geometry" />
        </mxCell>
        <mxCell id="PHy7201BnxDDZTUnav_f-82" style="edgeStyle=orthogonalEdgeStyle;rounded=0;orthogonalLoop=1;jettySize=auto;html=1;entryX=-0.023;entryY=0.52;entryDx=0;entryDy=0;entryPerimeter=0;fontColor=#000000;" parent="1" source="PHy7201BnxDDZTUnav_f-65" target="PHy7201BnxDDZTUnav_f-81" edge="1">
          <mxGeometry relative="1" as="geometry" />
        </mxCell>
        <mxCell id="PHy7201BnxDDZTUnav_f-83" value="3/8&quot;BSPP -&lt;br&gt;3/8&quot;SW" style="verticalLabelPosition=top;align=center;dashed=0;html=1;verticalAlign=bottom;shape=mxgraph.pid.piping.concentric_reducer;direction=west;fontFamily=Helvetica;labelPosition=center;" parent="1" vertex="1">
          <mxGeometry x="599.9962169919679" y="697.1920469268703" width="32.26078393601776" height="32.791762013729986" as="geometry" />
        </mxCell>
        <mxCell id="PHy7201BnxDDZTUnav_f-88" value="3/8&quot;" style="edgeStyle=orthogonalEdgeStyle;rounded=0;orthogonalLoop=1;jettySize=auto;html=1;entryX=0;entryY=0.5;entryDx=0;entryDy=0;entryPerimeter=0;fontColor=#000000;" parent="1" source="PHy7201BnxDDZTUnav_f-83" target="PHy7201BnxDDZTUnav_f-113" edge="1">
          <mxGeometry relative="1" as="geometry">
            <mxPoint x="677.9994282937294" y="713.1726883037354" as="targetPoint" />
          </mxGeometry>
        </mxCell>
        <mxCell id="PHy7201BnxDDZTUnav_f-102" style="edgeStyle=orthogonalEdgeStyle;rounded=0;orthogonalLoop=1;jettySize=auto;html=1;entryX=0;entryY=0.5;entryDx=0;entryDy=0;entryPerimeter=0;fontColor=#000000;exitX=0.41;exitY=1.002;exitDx=0;exitDy=0;exitPerimeter=0;" parent="1" source="PHy7201BnxDDZTUnav_f-99" target="PHy7201BnxDDZTUnav_f-68" edge="1">
          <mxGeometry relative="1" as="geometry" />
        </mxCell>
        <mxCell id="PHy7201BnxDDZTUnav_f-106" style="edgeStyle=orthogonalEdgeStyle;rounded=0;orthogonalLoop=1;jettySize=auto;html=1;entryX=0.997;entryY=0.5;entryDx=0;entryDy=0;entryPerimeter=0;fontColor=#000000;dashed=1;" parent="1" source="PHy7201BnxDDZTUnav_f-104" target="PHy7201BnxDDZTUnav_f-99" edge="1">
          <mxGeometry relative="1" as="geometry" />
        </mxCell>
        <mxCell id="PHy7201BnxDDZTUnav_f-104" value="TC&lt;br&gt;01&lt;br&gt; " style="html=1;outlineConnect=0;align=center;dashed=0;aspect=fixed;shape=mxgraph.pid2inst.progLogCont;mounting=field;fontColor=#000000;strokeColor=#000000;strokeWidth=1;fillColor=default;" parent="1" vertex="1">
          <mxGeometry x="287.9" y="188.14" width="50" height="50" as="geometry" />
        </mxCell>
        <mxCell id="PHy7201BnxDDZTUnav_f-107" value="DAQ" style="rounded=1;whiteSpace=wrap;html=1;fontColor=#000000;strokeColor=#000000;strokeWidth=1;fillColor=default;" parent="1" vertex="1">
          <mxGeometry x="376.02" y="255" width="120" height="60" as="geometry" />
        </mxCell>
        <mxCell id="PHy7201BnxDDZTUnav_f-110" style="edgeStyle=orthogonalEdgeStyle;rounded=0;orthogonalLoop=1;jettySize=auto;html=1;entryX=0.5;entryY=1;entryDx=0;entryDy=0;dashed=1;fontColor=#000000;" parent="1" source="PHy7201BnxDDZTUnav_f-73" target="PHy7201BnxDDZTUnav_f-107" edge="1">
          <mxGeometry relative="1" as="geometry">
            <Array as="points">
              <mxPoint x="248.29" y="370" />
              <mxPoint x="436.28999999999996" y="370" />
            </Array>
          </mxGeometry>
        </mxCell>
        <mxCell id="PHy7201BnxDDZTUnav_f-108" value="" style="endArrow=classic;html=1;rounded=0;dashed=1;fontColor=#000000;entryX=0;entryY=0.5;entryDx=0;entryDy=0;exitX=1;exitY=0.5;exitDx=0;exitDy=0;" parent="1" source="PHy7201BnxDDZTUnav_f-109" target="PHy7201BnxDDZTUnav_f-107" edge="1">
          <mxGeometry width="50" height="50" relative="1" as="geometry">
            <mxPoint x="264.0899999999999" y="285" as="sourcePoint" />
            <mxPoint x="387.28999999999996" y="270" as="targetPoint" />
          </mxGeometry>
        </mxCell>
        <mxCell id="PHy7201BnxDDZTUnav_f-109" value="&lt;table cellpadding=&quot;4&quot; cellspacing=&quot;0&quot; border=&quot;0&quot; style=&quot;font-size: 1em ; width: 100% ; height: 100%&quot;&gt;&lt;tbody&gt;&lt;tr&gt;&lt;td&gt;TT&lt;/td&gt;&lt;/tr&gt;&lt;tr&gt;&lt;td&gt;01&lt;/td&gt;&lt;/tr&gt;&lt;/tbody&gt;&lt;/table&gt; " style="html=1;outlineConnect=0;align=center;dashed=0;aspect=fixed;shape=mxgraph.pid2inst.discInst;mounting=room;fontColor=#000000;strokeColor=#000000;strokeWidth=1;fillColor=default;" parent="1" vertex="1">
          <mxGeometry x="231.83" y="260" width="50" height="50" as="geometry" />
        </mxCell>
        <mxCell id="PHy7201BnxDDZTUnav_f-105" style="edgeStyle=orthogonalEdgeStyle;rounded=0;orthogonalLoop=1;jettySize=auto;html=1;entryX=0.5;entryY=1;entryDx=0;entryDy=0;fontColor=#000000;dashed=1;exitX=1;exitY=0.5;exitDx=0;exitDy=0;" parent="1" source="PHy7201BnxDDZTUnav_f-109" target="PHy7201BnxDDZTUnav_f-104" edge="1">
          <mxGeometry relative="1" as="geometry">
            <mxPoint x="264.0899999999999" y="285" as="sourcePoint" />
          </mxGeometry>
        </mxCell>
        <mxCell id="PHy7201BnxDDZTUnav_f-111" value="NOSWIZARDS&lt;br&gt;6AN HOSE" style="verticalLabelPosition=bottom;align=center;dashed=0;html=1;verticalAlign=top;shape=mxgraph.pid.piping.flexible_hose;pointerEvents=1;direction=west;fontFamily=Helvetica;labelPosition=center;" parent="1" vertex="1">
          <mxGeometry x="822.9735526315791" y="688.4040789473682" width="93.42105263157895" height="49.90552631578947" as="geometry" />
        </mxCell>
        <mxCell id="PHy7201BnxDDZTUnav_f-113" value="3/8&quot;BSPP -&lt;br&gt;3/8&quot;SW" style="verticalLabelPosition=top;align=center;dashed=0;html=1;verticalAlign=bottom;shape=mxgraph.pid.piping.concentric_reducer;direction=east;fontFamily=Helvetica;labelPosition=center;" parent="1" vertex="1">
          <mxGeometry x="680.706216991968" y="697.1920469268703" width="32.26078393601776" height="32.791762013729986" as="geometry" />
        </mxCell>
        <mxCell id="PHy7201BnxDDZTUnav_f-120" style="edgeStyle=orthogonalEdgeStyle;rounded=0;orthogonalLoop=1;jettySize=auto;html=1;entryX=1;entryY=0.5;entryDx=0;entryDy=0;entryPerimeter=0;fontColor=#000000;" parent="1" source="PHy7201BnxDDZTUnav_f-118" target="PHy7201BnxDDZTUnav_f-111" edge="1">
          <mxGeometry relative="1" as="geometry" />
        </mxCell>
        <mxCell id="PHy7201BnxDDZTUnav_f-118" value="3/8&quot;SW -&lt;br&gt;&amp;nbsp;6AN" style="verticalLabelPosition=top;align=center;dashed=0;html=1;verticalAlign=bottom;shape=mxgraph.pid.piping.concentric_reducer;direction=east;fontFamily=Helvetica;labelPosition=center;" parent="1" vertex="1">
          <mxGeometry x="762.9662169919679" y="697.1920469268703" width="32.26078393601776" height="32.791762013729986" as="geometry" />
        </mxCell>
        <mxCell id="PHy7201BnxDDZTUnav_f-115" value="3/8&quot;" style="edgeStyle=orthogonalEdgeStyle;rounded=0;orthogonalLoop=1;jettySize=auto;html=1;fontColor=#000000;entryX=0;entryY=0.5;entryDx=0;entryDy=0;entryPerimeter=0;" parent="1" source="PHy7201BnxDDZTUnav_f-113" target="PHy7201BnxDDZTUnav_f-118" edge="1">
          <mxGeometry relative="1" as="geometry">
            <mxPoint x="782.9700000000001" y="713" as="targetPoint" />
          </mxGeometry>
        </mxCell>
        <mxCell id="PHy7201BnxDDZTUnav_f-121" value="3/8&quot;SW -&lt;br&gt;&amp;nbsp;6AN" style="verticalLabelPosition=middle;align=right;dashed=0;html=1;verticalAlign=middle;shape=mxgraph.pid.piping.concentric_reducer;direction=north;fontFamily=Helvetica;labelPosition=left;" parent="1" vertex="1">
          <mxGeometry x="932.9707279531118" y="626.9675359657265" width="32.791762013729986" height="32.26078393601776" as="geometry" />
        </mxCell>
        <mxCell id="PHy7201BnxDDZTUnav_f-122" style="edgeStyle=orthogonalEdgeStyle;rounded=0;orthogonalLoop=1;jettySize=auto;html=1;entryX=0;entryY=0.5;entryDx=0;entryDy=0;entryPerimeter=0;fontColor=#000000;" parent="1" source="PHy7201BnxDDZTUnav_f-111" target="PHy7201BnxDDZTUnav_f-121" edge="1">
          <mxGeometry relative="1" as="geometry" />
        </mxCell>
        <mxCell id="PHy7201BnxDDZTUnav_f-131" value="3/8&quot;" style="edgeStyle=orthogonalEdgeStyle;rounded=0;orthogonalLoop=1;jettySize=auto;html=1;fontColor=#000000;" parent="1" source="PHy7201BnxDDZTUnav_f-123" edge="1">
          <mxGeometry relative="1" as="geometry">
            <mxPoint x="949.3699999999999" y="510" as="targetPoint" />
          </mxGeometry>
        </mxCell>
        <mxCell id="PHy7201BnxDDZTUnav_f-123" value="SW 3/8&quot; QUICK&lt;br&gt;DISCONNECT" style="verticalLabelPosition=middle;align=right;dashed=0;html=1;verticalAlign=middle;shape=mxgraph.pid.piping.double_flange;pointerEvents=1;direction=south;labelPosition=left;horizontal=1;" parent="1" vertex="1">
          <mxGeometry x="929.37" y="556.9699999999999" width="40" height="10" as="geometry" />
        </mxCell>
        <mxCell id="PHy7201BnxDDZTUnav_f-132" value="" style="shape=flexArrow;endArrow=classic;html=1;rounded=0;fontColor=#000000;" parent="1" edge="1">
          <mxGeometry width="50" height="50" relative="1" as="geometry">
            <mxPoint x="949.24" y="500" as="sourcePoint" />
            <mxPoint x="949.24" y="440" as="targetPoint" />
          </mxGeometry>
        </mxCell>
        <mxCell id="PHy7201BnxDDZTUnav_f-124" value="3/8&quot;" style="edgeStyle=orthogonalEdgeStyle;rounded=0;orthogonalLoop=1;jettySize=auto;html=1;entryX=0.9;entryY=0.5;entryDx=0;entryDy=0;entryPerimeter=0;fontColor=#000000;" parent="1" source="PHy7201BnxDDZTUnav_f-121" target="PHy7201BnxDDZTUnav_f-123" edge="1">
          <mxGeometry relative="1" as="geometry" />
        </mxCell>
        <mxCell id="FmFQ4rPdQYdLu2N4QUA8-1" value="TO FEED SYSTEM" style="text;html=1;strokeColor=none;fillColor=none;align=center;verticalAlign=middle;whiteSpace=wrap;rounded=0;fontColor=#000000;" parent="1" vertex="1">
          <mxGeometry x="912.5300000000001" y="410" width="73.68" height="29" as="geometry" />
        </mxCell>
        <mxCell id="rBykH6ILNC34cnbh9j5M-1" value="M" style="text;html=1;strokeColor=none;fillColor=none;align=center;verticalAlign=middle;whiteSpace=wrap;rounded=0;fontColor=#000000;" parent="1" vertex="1">
          <mxGeometry x="530.1600000000001" y="709.49" width="10.7" height="8.2" as="geometry" />
        </mxCell>
        <mxCell id="8U7-wDKYKQAgvXB5fvo2-1" style="edgeStyle=orthogonalEdgeStyle;rounded=0;orthogonalLoop=1;jettySize=auto;html=1;dashed=1;fontSize=11;" parent="1" target="9G-0R5FSyauEbFqfK7pn-1" edge="1">
          <mxGeometry relative="1" as="geometry">
            <mxPoint x="535" y="430" as="sourcePoint" />
          </mxGeometry>
        </mxCell>
        <mxCell id="9G-0R5FSyauEbFqfK7pn-3" style="edgeStyle=orthogonalEdgeStyle;rounded=0;orthogonalLoop=1;jettySize=auto;html=1;entryX=0.497;entryY=0.178;entryDx=0;entryDy=0;entryPerimeter=0;dashed=1;fontSize=11;" parent="1" source="9G-0R5FSyauEbFqfK7pn-1" target="PHy7201BnxDDZTUnav_f-81" edge="1">
          <mxGeometry relative="1" as="geometry" />
        </mxCell>
        <mxCell id="9G-0R5FSyauEbFqfK7pn-1" value="MC&lt;br&gt;01&lt;br&gt; " style="html=1;outlineConnect=0;align=center;dashed=0;aspect=fixed;shape=mxgraph.pid2inst.progLogCont;mounting=field;fontColor=#000000;strokeColor=#000000;strokeWidth=1;fillColor=default;" parent="1" vertex="1">
          <mxGeometry x="513.4435353466788" y="626.3865049679572" width="44.117517975253435" height="44.117517975253435" as="geometry" />
        </mxCell>
        <mxCell id="8U7-wDKYKQAgvXB5fvo2-2" value="" style="shape=flexArrow;endArrow=classic;html=1;rounded=0;fontColor=#000000;" parent="1" edge="1">
          <mxGeometry width="50" height="50" relative="1" as="geometry">
            <mxPoint x="535.31" y="359.87000000000006" as="sourcePoint" />
            <mxPoint x="535.31" y="419.87000000000006" as="targetPoint" />
          </mxGeometry>
        </mxCell>
        <mxCell id="LeCXthVhPXkO0p-w_sGm-1" value="GROUND STATION COMMANDS" style="text;html=1;strokeColor=none;fillColor=none;align=center;verticalAlign=middle;whiteSpace=wrap;rounded=0;fontColor=#000000;" parent="1" vertex="1">
          <mxGeometry x="498.5100000000002" y="317.87" width="74" height="30" as="geometry" />
        </mxCell>
      </root>
    </mxGraphModel>
  </diagram>
  <diagram id="N9eMLkgOZ8TUAigYl3_M" name="Flight feed system">
    <mxGraphModel dx="1209" dy="806" grid="1" gridSize="10" guides="1" tooltips="1" connect="1" arrows="1" fold="1" page="1" pageScale="1" pageWidth="1169" pageHeight="827" math="0" shadow="0">
      <root>
        <mxCell id="9qhT2gbWu-hBArQtt8LR-0" />
        <mxCell id="9qhT2gbWu-hBArQtt8LR-1" parent="9qhT2gbWu-hBArQtt8LR-0" />
        <mxCell id="GgJ-GGagvXka6RtjPfGx-0" value="&lt;b&gt;&lt;font&gt;&lt;u style=&quot;font-size: 20px&quot;&gt;HYPNOS FLIGHT FEED SYSTEM CONFIG P&amp;amp;ID&lt;/u&gt;&lt;br&gt;&lt;span style=&quot;font-size: 20px&quot;&gt;REV 1.8&lt;/span&gt;&lt;br&gt;&lt;font style=&quot;font-size: 14px&quot;&gt;LUC PAOLI&lt;/font&gt;&lt;br&gt;&lt;/font&gt;&lt;/b&gt;" style="text;html=1;strokeColor=none;fillColor=none;align=center;verticalAlign=middle;whiteSpace=wrap;rounded=0;fontFamily=Helvetica;" parent="9qhT2gbWu-hBArQtt8LR-1" vertex="1">
          <mxGeometry x="40" y="42" width="262.63" height="88" as="geometry" />
        </mxCell>
        <mxCell id="4C3hLf-XN-ECmza6Cgg7-11" value="3/8&quot;" style="edgeStyle=orthogonalEdgeStyle;rounded=0;orthogonalLoop=1;jettySize=auto;html=1;entryX=0;entryY=0;entryDx=0;entryDy=6;entryPerimeter=0;fontSize=12;startArrow=none;startFill=0;endArrow=classic;endFill=1;" parent="9qhT2gbWu-hBArQtt8LR-1" target="GgJ-GGagvXka6RtjPfGx-35" edge="1">
          <mxGeometry relative="1" as="geometry">
            <mxPoint x="702.6" y="589" as="sourcePoint" />
            <Array as="points">
              <mxPoint x="670.6" y="590" />
            </Array>
          </mxGeometry>
        </mxCell>
        <mxCell id="0fEEbLnaMbrbdZnxikDv-2" style="edgeStyle=orthogonalEdgeStyle;rounded=0;orthogonalLoop=1;jettySize=auto;html=1;entryX=0.5;entryY=1;entryDx=0;entryDy=0;entryPerimeter=0;" parent="9qhT2gbWu-hBArQtt8LR-1" source="GgJ-GGagvXka6RtjPfGx-1" target="0fEEbLnaMbrbdZnxikDv-0" edge="1">
          <mxGeometry relative="1" as="geometry">
            <Array as="points">
              <mxPoint x="912.7" y="550" />
            </Array>
          </mxGeometry>
        </mxCell>
        <mxCell id="GgJ-GGagvXka6RtjPfGx-1" value="" style="shape=mxgraph.pid.vessels.vessel_(dished_ends,_electrical_heating);pointerEvents=1;align=center;verticalLabelPosition=middle;verticalAlign=middle;dashed=0;fontColor=#000000;strokeColor=#000000;strokeWidth=1;fillColor=default;labelPosition=center;horizontal=1;html=1;direction=north;flipV=0;" parent="9qhT2gbWu-hBArQtt8LR-1" vertex="1">
          <mxGeometry x="699.4774156857695" y="501.30961173101434" width="182.01123215870558" height="110.71353851258142" as="geometry" />
        </mxCell>
        <mxCell id="GgJ-GGagvXka6RtjPfGx-5" value="" style="edgeStyle=orthogonalEdgeStyle;rounded=0;orthogonalLoop=1;jettySize=auto;html=1;fontColor=#000000;entryX=0;entryY=0.5;entryDx=0;entryDy=0;entryPerimeter=0;exitX=0.678;exitY=0.023;exitDx=0;exitDy=0;exitPerimeter=0;" parent="9qhT2gbWu-hBArQtt8LR-1" source="GgJ-GGagvXka6RtjPfGx-1" target="GgJ-GGagvXka6RtjPfGx-32" edge="1">
          <mxGeometry relative="1" as="geometry">
            <mxPoint x="668.4278130573645" y="537.0824696596644" as="targetPoint" />
            <Array as="points" />
            <mxPoint x="700.84" y="536.85" as="sourcePoint" />
          </mxGeometry>
        </mxCell>
        <mxCell id="GgJ-GGagvXka6RtjPfGx-6" value="&lt;span&gt;TEMPERATURE&lt;/span&gt;&lt;br&gt;&lt;span&gt;CONTROLLED&lt;/span&gt;&lt;br&gt;&lt;span&gt;RUN TANK&lt;/span&gt;" style="text;strokeColor=none;fillColor=none;align=center;verticalAlign=middle;spacingLeft=4;spacingRight=4;overflow=hidden;points=[[0,0.5],[1,0.5]];portConstraint=eastwest;rotatable=0;fontColor=#000000;html=1;flipV=1;direction=east;" parent="9qhT2gbWu-hBArQtt8LR-1" vertex="1">
          <mxGeometry x="711.0670876578686" y="522.4672296435992" width="158.82306471091238" height="99.34325178549601" as="geometry" />
        </mxCell>
        <mxCell id="GgJ-GGagvXka6RtjPfGx-12" value="1/4&quot;BSPP -&lt;br&gt;1/4&quot; SW" style="verticalLabelPosition=middle;align=right;dashed=0;html=1;verticalAlign=middle;shape=mxgraph.pid.piping.concentric_reducer;direction=north;fontFamily=Helvetica;horizontal=1;labelPosition=left;" parent="9qhT2gbWu-hBArQtt8LR-1" vertex="1">
          <mxGeometry x="935.6199515755006" y="461.106980550545" width="28.465314303860616" height="29.614911547454923" as="geometry" />
        </mxCell>
        <mxCell id="GgJ-GGagvXka6RtjPfGx-13" value="" style="edgeStyle=orthogonalEdgeStyle;rounded=0;orthogonalLoop=1;jettySize=auto;html=1;entryX=0;entryY=0.5;entryDx=0;entryDy=0;entryPerimeter=0;fontColor=#000000;exitX=0;exitY=0;exitDx=0;exitDy=6;exitPerimeter=0;" parent="9qhT2gbWu-hBArQtt8LR-1" source="0fEEbLnaMbrbdZnxikDv-0" target="GgJ-GGagvXka6RtjPfGx-12" edge="1">
          <mxGeometry relative="1" as="geometry">
            <mxPoint x="951.53" y="508" as="sourcePoint" />
            <Array as="points" />
          </mxGeometry>
        </mxCell>
        <mxCell id="GgJ-GGagvXka6RtjPfGx-15" value="TO ATM" style="edgeStyle=orthogonalEdgeStyle;rounded=0;orthogonalLoop=1;jettySize=auto;html=1;fontColor=#000000;exitX=0.005;exitY=0.484;exitDx=0;exitDy=0;exitPerimeter=0;" parent="9qhT2gbWu-hBArQtt8LR-1" source="0N9autk_wKFo7xufBzyG-0" edge="1">
          <mxGeometry relative="1" as="geometry">
            <mxPoint x="950.754030256017" y="318.18632842649345" as="targetPoint" />
            <mxPoint x="950.5299999999999" y="349.0511472575829" as="sourcePoint" />
          </mxGeometry>
        </mxCell>
        <mxCell id="0fEEbLnaMbrbdZnxikDv-4" style="edgeStyle=orthogonalEdgeStyle;rounded=0;orthogonalLoop=1;jettySize=auto;html=1;entryX=-0.005;entryY=0.687;entryDx=0;entryDy=0;entryPerimeter=0;" parent="9qhT2gbWu-hBArQtt8LR-1" source="GgJ-GGagvXka6RtjPfGx-16" target="GgJ-GGagvXka6RtjPfGx-19" edge="1">
          <mxGeometry relative="1" as="geometry" />
        </mxCell>
        <mxCell id="GgJ-GGagvXka6RtjPfGx-16" value="1/4&quot;BSPP -&lt;br&gt;1/4&quot; SW" style="verticalLabelPosition=middle;align=left;dashed=0;html=1;verticalAlign=middle;shape=mxgraph.pid.piping.concentric_reducer;direction=south;fontFamily=Helvetica;horizontal=1;labelPosition=right;" parent="9qhT2gbWu-hBArQtt8LR-1" vertex="1">
          <mxGeometry x="936.9646428480331" y="595.72304789958" width="29.135374375939065" height="28.93382300161931" as="geometry" />
        </mxCell>
        <mxCell id="GgJ-GGagvXka6RtjPfGx-18" value="TO ATM" style="edgeStyle=orthogonalEdgeStyle;rounded=0;orthogonalLoop=1;jettySize=auto;html=1;fontColor=#000000;exitX=1.026;exitY=0.699;exitDx=0;exitDy=0;exitPerimeter=0;labelPosition=center;verticalLabelPosition=middle;align=center;verticalAlign=middle;" parent="9qhT2gbWu-hBArQtt8LR-1" source="GgJ-GGagvXka6RtjPfGx-19" edge="1">
          <mxGeometry relative="1" as="geometry">
            <mxPoint x="950.7" y="750" as="targetPoint" />
            <Array as="points">
              <mxPoint x="950.7" y="730" />
              <mxPoint x="950.7" y="730" />
            </Array>
            <mxPoint x="1079.8365969094173" y="600.3091413903298" as="sourcePoint" />
          </mxGeometry>
        </mxCell>
        <mxCell id="GgJ-GGagvXka6RtjPfGx-19" value="NOSWIZARDS&lt;br&gt;SPRV" style="verticalLabelPosition=middle;align=right;html=1;verticalAlign=middle;pointerEvents=1;dashed=0;shape=mxgraph.pid2valves.valve;valveType=gate;actuator=spring;direction=south;horizontal=1;labelPosition=left;fontFamily=Helvetica;" parent="9qhT2gbWu-hBArQtt8LR-1" vertex="1">
          <mxGeometry x="931.6954748346451" y="656.9987966891927" width="61.764525165354804" height="63.21843295440655" as="geometry" />
        </mxCell>
        <mxCell id="4C3hLf-XN-ECmza6Cgg7-8" style="edgeStyle=orthogonalEdgeStyle;rounded=0;orthogonalLoop=1;jettySize=auto;html=1;fontSize=12;endArrow=classic;endFill=1;dashed=1;" parent="9qhT2gbWu-hBArQtt8LR-1" source="GgJ-GGagvXka6RtjPfGx-24" target="GgJ-GGagvXka6RtjPfGx-81" edge="1">
          <mxGeometry relative="1" as="geometry" />
        </mxCell>
        <mxCell id="4C3hLf-XN-ECmza6Cgg7-13" style="edgeStyle=orthogonalEdgeStyle;rounded=0;orthogonalLoop=1;jettySize=auto;html=1;exitX=0;exitY=0.75;exitDx=0;exitDy=0;dashed=1;fontSize=12;startArrow=none;startFill=0;endArrow=classic;endFill=1;" parent="9qhT2gbWu-hBArQtt8LR-1" source="GgJ-GGagvXka6RtjPfGx-24" target="GgJ-GGagvXka6RtjPfGx-33" edge="1">
          <mxGeometry relative="1" as="geometry" />
        </mxCell>
        <mxCell id="4C3hLf-XN-ECmza6Cgg7-15" style="edgeStyle=orthogonalEdgeStyle;rounded=0;orthogonalLoop=1;jettySize=auto;html=1;exitX=0.5;exitY=1;exitDx=0;exitDy=0;dashed=1;fontSize=12;startArrow=none;startFill=0;endArrow=classic;endFill=1;" parent="9qhT2gbWu-hBArQtt8LR-1" source="GgJ-GGagvXka6RtjPfGx-24" target="GgJ-GGagvXka6RtjPfGx-28" edge="1">
          <mxGeometry relative="1" as="geometry">
            <Array as="points" />
          </mxGeometry>
        </mxCell>
        <mxCell id="GgJ-GGagvXka6RtjPfGx-26" value="&lt;table cellpadding=&quot;4&quot; cellspacing=&quot;0&quot; border=&quot;0&quot; style=&quot;font-size: 1em ; width: 100% ; height: 100%&quot;&gt;&lt;tbody&gt;&lt;tr&gt;&lt;td&gt;TT&lt;/td&gt;&lt;/tr&gt;&lt;tr&gt;&lt;td&gt;02&lt;/td&gt;&lt;/tr&gt;&lt;/tbody&gt;&lt;/table&gt; " style="html=1;outlineConnect=0;align=center;dashed=0;aspect=fixed;shape=mxgraph.pid2inst.discInst;mounting=room;fontColor=#000000;strokeColor=#000000;strokeWidth=1;fillColor=default;" parent="9qhT2gbWu-hBArQtt8LR-1" vertex="1">
          <mxGeometry x="825.7726343935271" y="446.6065049679571" width="44.117517975253435" height="44.117517975253435" as="geometry" />
        </mxCell>
        <mxCell id="GgJ-GGagvXka6RtjPfGx-28" value="TC&lt;br&gt;02&lt;br&gt; " style="html=1;outlineConnect=0;align=center;dashed=0;aspect=fixed;shape=mxgraph.pid2inst.progLogCont;mounting=field;fontColor=#000000;strokeColor=#000000;strokeWidth=1;fillColor=default;" parent="9qhT2gbWu-hBArQtt8LR-1" vertex="1">
          <mxGeometry x="718.8935353466786" y="446.6065049679571" width="44.117517975253435" height="44.117517975253435" as="geometry" />
        </mxCell>
        <mxCell id="GgJ-GGagvXka6RtjPfGx-29" style="edgeStyle=orthogonalEdgeStyle;rounded=0;orthogonalLoop=1;jettySize=auto;html=1;entryX=1;entryY=0.5;entryDx=0;entryDy=0;dashed=1;fontColor=#000000;" parent="9qhT2gbWu-hBArQtt8LR-1" source="GgJ-GGagvXka6RtjPfGx-26" target="GgJ-GGagvXka6RtjPfGx-28" edge="1">
          <mxGeometry relative="1" as="geometry" />
        </mxCell>
        <mxCell id="GgJ-GGagvXka6RtjPfGx-32" value="1/4&quot;SW -&lt;br&gt;1/8&quot;NPT" style="verticalLabelPosition=top;align=center;dashed=0;html=1;verticalAlign=bottom;shape=mxgraph.pid.piping.concentric_reducer;direction=west;fontFamily=Helvetica;horizontal=1;labelPosition=center;" parent="9qhT2gbWu-hBArQtt8LR-1" vertex="1">
          <mxGeometry x="635.8595142609312" y="522.6329329769093" width="28.93382300161931" height="29.135374375939065" as="geometry" />
        </mxCell>
        <mxCell id="GgJ-GGagvXka6RtjPfGx-33" value="&lt;table style=&quot;font-size: 1em ; width: 100% ; height: 100%&quot; cellspacing=&quot;0&quot; cellpadding=&quot;4&quot; border=&quot;0&quot;&gt;&lt;tbody&gt;&lt;tr&gt;&lt;td&gt;PT&lt;/td&gt;&lt;/tr&gt;&lt;tr&gt;&lt;td&gt;04&lt;/td&gt;&lt;/tr&gt;&lt;/tbody&gt;&lt;/table&gt; " style="html=1;outlineConnect=0;align=center;dashed=0;aspect=fixed;shape=mxgraph.pid2inst.discInst;mounting=room;fontColor=#000000;strokeColor=#000000;strokeWidth=1;fillColor=default;" parent="9qhT2gbWu-hBArQtt8LR-1" vertex="1">
          <mxGeometry x="565.6045727927965" y="515.1444578902335" width="44.117517975253435" height="44.117517975253435" as="geometry" />
        </mxCell>
        <mxCell id="GgJ-GGagvXka6RtjPfGx-34" style="edgeStyle=orthogonalEdgeStyle;rounded=0;orthogonalLoop=1;jettySize=auto;html=1;entryX=1;entryY=0.5;entryDx=0;entryDy=0;fontColor=#000000;" parent="9qhT2gbWu-hBArQtt8LR-1" source="GgJ-GGagvXka6RtjPfGx-32" target="GgJ-GGagvXka6RtjPfGx-33" edge="1">
          <mxGeometry relative="1" as="geometry">
            <Array as="points">
              <mxPoint x="616.2500000000002" y="537.01" />
            </Array>
          </mxGeometry>
        </mxCell>
        <mxCell id="GgJ-GGagvXka6RtjPfGx-35" value="3/8&quot;- 1/4&quot;-3/8&quot; TEE" style="shape=tee;whiteSpace=wrap;html=1;rotation=0;dx=12;dy=12;fontFamily=Helvetica;direction=west;flipV=0;verticalAlign=top;labelPosition=center;verticalLabelPosition=bottom;align=center;" parent="9qhT2gbWu-hBArQtt8LR-1" vertex="1">
          <mxGeometry x="497.6789352670805" y="551.2517183374264" width="54.12218456971357" height="43.952699850725566" as="geometry" />
        </mxCell>
        <mxCell id="GgJ-GGagvXka6RtjPfGx-36" value="SW 3/8&quot; QUICK&lt;br&gt;DISCONNECT" style="verticalLabelPosition=middle;align=right;dashed=0;html=1;verticalAlign=middle;shape=mxgraph.pid.piping.double_flange;pointerEvents=1;direction=south;labelPosition=left;horizontal=1;" parent="9qhT2gbWu-hBArQtt8LR-1" vertex="1">
          <mxGeometry x="507.09624690782965" y="361.4405378315608" width="35.294014380202746" height="9.031204707772364" as="geometry" />
        </mxCell>
        <mxCell id="GgJ-GGagvXka6RtjPfGx-37" value="" style="edgeStyle=orthogonalEdgeStyle;rounded=0;orthogonalLoop=1;jettySize=auto;html=1;entryX=0.5;entryY=1;entryDx=0;entryDy=0;entryPerimeter=0;fontColor=#000000;exitX=1.003;exitY=0.49;exitDx=0;exitDy=0;exitPerimeter=0;" parent="9qhT2gbWu-hBArQtt8LR-1" source="GgJ-GGagvXka6RtjPfGx-38" target="GgJ-GGagvXka6RtjPfGx-35" edge="1">
          <mxGeometry relative="1" as="geometry">
            <mxPoint x="524.7211095394566" y="517.9977060985836" as="sourcePoint" />
          </mxGeometry>
        </mxCell>
        <mxCell id="GgJ-GGagvXka6RtjPfGx-38" value="1/4&quot; CHECK&lt;br&gt;VALVE" style="verticalLabelPosition=top;align=center;html=1;verticalAlign=middle;pointerEvents=1;dashed=0;shape=mxgraph.pid2valves.valve;valveType=check;rotation=90;labelPosition=center;horizontal=0;direction=east;flipV=0;" parent="9qhT2gbWu-hBArQtt8LR-1" vertex="1">
          <mxGeometry x="499.8080329383176" y="469.3798306179824" width="49.870442319226484" height="31.92530864197531" as="geometry" />
        </mxCell>
        <mxCell id="GgJ-GGagvXka6RtjPfGx-39" value="" style="edgeStyle=orthogonalEdgeStyle;rounded=0;orthogonalLoop=1;jettySize=auto;html=1;entryX=0;entryY=0.5;entryDx=0;entryDy=0;entryPerimeter=0;fontColor=#000000;" parent="9qhT2gbWu-hBArQtt8LR-1" source="GgJ-GGagvXka6RtjPfGx-36" target="7fU9hJwui9hkNI9wWa8o-3" edge="1">
          <mxGeometry relative="1" as="geometry" />
        </mxCell>
        <mxCell id="GgJ-GGagvXka6RtjPfGx-40" value="" style="shape=flexArrow;endArrow=classic;html=1;rounded=0;fontColor=#000000;" parent="9qhT2gbWu-hBArQtt8LR-1" edge="1">
          <mxGeometry width="50" height="50" relative="1" as="geometry">
            <mxPoint x="524.3220793570624" y="263.7698550648716" as="sourcePoint" />
            <mxPoint x="524.3220793570624" y="317.95708331150564" as="targetPoint" />
          </mxGeometry>
        </mxCell>
        <mxCell id="GgJ-GGagvXka6RtjPfGx-41" value="" style="endArrow=classic;html=1;rounded=0;fontColor=#000000;entryX=0.1;entryY=0.5;entryDx=0;entryDy=0;entryPerimeter=0;" parent="9qhT2gbWu-hBArQtt8LR-1" target="GgJ-GGagvXka6RtjPfGx-36" edge="1">
          <mxGeometry width="50" height="50" relative="1" as="geometry">
            <mxPoint x="524.7800000000004" y="320.96" as="sourcePoint" />
            <mxPoint x="603.5636117125187" y="350.9469237082438" as="targetPoint" />
            <Array as="points">
              <mxPoint x="524.7" y="339.58" />
            </Array>
          </mxGeometry>
        </mxCell>
        <mxCell id="GgJ-GGagvXka6RtjPfGx-42" value="&lt;div style=&quot;text-align: center&quot;&gt;&lt;span&gt;FROM&lt;/span&gt;&lt;/div&gt;&lt;div style=&quot;text-align: center&quot;&gt;&lt;span&gt;GROUND&lt;/span&gt;&lt;/div&gt;" style="text;strokeColor=none;fillColor=none;align=left;verticalAlign=middle;spacingLeft=4;spacingRight=4;overflow=hidden;points=[[0,0.5],[1,0.5]];portConstraint=eastwest;rotatable=0;fontColor=#000000;html=1;" parent="9qhT2gbWu-hBArQtt8LR-1" vertex="1">
          <mxGeometry x="489.99999999999994" y="229.57999999999998" width="69.48" height="37.09" as="geometry" />
        </mxCell>
        <mxCell id="GgJ-GGagvXka6RtjPfGx-44" value="3/8&quot;SW -&lt;br&gt;3/8&quot;BSPP" style="verticalLabelPosition=top;align=center;dashed=0;html=1;verticalAlign=bottom;shape=mxgraph.pid.piping.concentric_reducer;direction=west;fontFamily=Helvetica;horizontal=1;labelPosition=center;" parent="9qhT2gbWu-hBArQtt8LR-1" vertex="1">
          <mxGeometry x="423.593967525272" y="575.2408244327214" width="28.93382300161931" height="29.135374375939065" as="geometry" />
        </mxCell>
        <mxCell id="GgJ-GGagvXka6RtjPfGx-45" style="edgeStyle=orthogonalEdgeStyle;rounded=0;orthogonalLoop=1;jettySize=auto;html=1;entryX=0;entryY=0.5;entryDx=0;entryDy=0;entryPerimeter=0;fontColor=#000000;exitX=0;exitY=0;exitDx=54.122184569713575;exitDy=6;exitPerimeter=0;" parent="9qhT2gbWu-hBArQtt8LR-1" source="GgJ-GGagvXka6RtjPfGx-35" target="GgJ-GGagvXka6RtjPfGx-44" edge="1">
          <mxGeometry relative="1" as="geometry">
            <mxPoint x="478.017790526891" y="589.808511620691" as="targetPoint" />
          </mxGeometry>
        </mxCell>
        <mxCell id="Yfq_kMVUkiogW4tbMK95-0" style="edgeStyle=orthogonalEdgeStyle;rounded=0;orthogonalLoop=1;jettySize=auto;html=1;entryX=0;entryY=0.5;entryDx=0;entryDy=0;entryPerimeter=0;" edge="1" parent="9qhT2gbWu-hBArQtt8LR-1" source="GgJ-GGagvXka6RtjPfGx-46" target="GgJ-GGagvXka6RtjPfGx-69">
          <mxGeometry relative="1" as="geometry" />
        </mxCell>
        <mxCell id="GgJ-GGagvXka6RtjPfGx-46" value="3/8&quot;SW -&lt;br&gt;1/2&quot;BSPP" style="verticalLabelPosition=top;align=center;dashed=0;html=1;verticalAlign=bottom;shape=mxgraph.pid.piping.concentric_reducer;direction=east;fontFamily=Helvetica;horizontal=1;labelPosition=center;" parent="9qhT2gbWu-hBArQtt8LR-1" vertex="1">
          <mxGeometry x="248.0049878549088" y="575.2408244327214" width="28.93382300161931" height="29.135374375939065" as="geometry" />
        </mxCell>
        <mxCell id="GgJ-GGagvXka6RtjPfGx-47" style="edgeStyle=orthogonalEdgeStyle;rounded=0;orthogonalLoop=1;jettySize=auto;html=1;entryX=1;entryY=0.5;entryDx=0;entryDy=0;entryPerimeter=0;fontColor=#000000;" parent="9qhT2gbWu-hBArQtt8LR-1" source="GgJ-GGagvXka6RtjPfGx-73" target="GgJ-GGagvXka6RtjPfGx-46" edge="1">
          <mxGeometry relative="1" as="geometry" />
        </mxCell>
        <mxCell id="GgJ-GGagvXka6RtjPfGx-11" style="edgeStyle=orthogonalEdgeStyle;rounded=0;orthogonalLoop=1;jettySize=auto;html=1;fontColor=#000000;" parent="9qhT2gbWu-hBArQtt8LR-1" source="GgJ-GGagvXka6RtjPfGx-12" target="0N9autk_wKFo7xufBzyG-0" edge="1">
          <mxGeometry relative="1" as="geometry">
            <mxPoint x="950.3445491011779" y="412.522453943807" as="targetPoint" />
          </mxGeometry>
        </mxCell>
        <mxCell id="GgJ-GGagvXka6RtjPfGx-65" value="INJECTORS" style="shape=mxgraph.pid.pumps.injector;html=1;pointerEvents=1;align=center;verticalLabelPosition=top;verticalAlign=bottom;dashed=0;direction=west;fontFamily=Helvetica;labelPosition=center;" parent="9qhT2gbWu-hBArQtt8LR-1" vertex="1">
          <mxGeometry x="91.00000000000001" y="572.31" width="70" height="35" as="geometry" />
        </mxCell>
        <mxCell id="GgJ-GGagvXka6RtjPfGx-68" style="edgeStyle=orthogonalEdgeStyle;rounded=0;orthogonalLoop=1;jettySize=auto;html=1;entryX=0;entryY=0.5;entryDx=0;entryDy=0;entryPerimeter=0;fontColor=#000000;" parent="9qhT2gbWu-hBArQtt8LR-1" source="GgJ-GGagvXka6RtjPfGx-69" target="GgJ-GGagvXka6RtjPfGx-65" edge="1">
          <mxGeometry relative="1" as="geometry" />
        </mxCell>
        <mxCell id="GgJ-GGagvXka6RtjPfGx-69" value="3/8&quot;SW -&lt;br&gt;1/2&quot;BSPP" style="verticalLabelPosition=bottom;align=center;dashed=0;html=1;verticalAlign=top;shape=mxgraph.pid.piping.concentric_reducer;direction=west;fontFamily=Helvetica;horizontal=1;labelPosition=center;" parent="9qhT2gbWu-hBArQtt8LR-1" vertex="1">
          <mxGeometry x="181.1033848391064" y="575.2408244327214" width="28.93382300161931" height="29.135374375939065" as="geometry" />
        </mxCell>
        <mxCell id="GgJ-GGagvXka6RtjPfGx-72" value="MC&lt;br&gt;01&lt;br&gt; " style="html=1;outlineConnect=0;align=center;dashed=0;aspect=fixed;shape=mxgraph.pid2inst.progLogCont;mounting=field;fontColor=#000000;strokeColor=#000000;strokeWidth=1;fillColor=default;" parent="9qhT2gbWu-hBArQtt8LR-1" vertex="1">
          <mxGeometry x="379.4735353466787" y="485.36650496795716" width="44.117517975253435" height="44.117517975253435" as="geometry" />
        </mxCell>
        <mxCell id="GgJ-GGagvXka6RtjPfGx-80" style="edgeStyle=orthogonalEdgeStyle;rounded=0;orthogonalLoop=1;jettySize=auto;html=1;dashed=1;fontColor=#000000;entryX=0.505;entryY=0.17;entryDx=0;entryDy=0;entryPerimeter=0;" parent="9qhT2gbWu-hBArQtt8LR-1" source="GgJ-GGagvXka6RtjPfGx-81" target="0N9autk_wKFo7xufBzyG-0" edge="1">
          <mxGeometry relative="1" as="geometry">
            <mxPoint x="999.9300000000006" y="381.05000000000007" as="targetPoint" />
          </mxGeometry>
        </mxCell>
        <mxCell id="GgJ-GGagvXka6RtjPfGx-81" value="MC&lt;br&gt;02&lt;br&gt; " style="html=1;outlineConnect=0;align=center;dashed=0;aspect=fixed;shape=mxgraph.pid2inst.progLogCont;mounting=field;fontColor=#000000;strokeColor=#000000;strokeWidth=1;fillColor=default;" parent="9qhT2gbWu-hBArQtt8LR-1" vertex="1">
          <mxGeometry x="991.9335353466782" y="365.20650496795724" width="44.117517975253435" height="44.117517975253435" as="geometry" />
        </mxCell>
        <mxCell id="GgJ-GGagvXka6RtjPfGx-21" style="edgeStyle=orthogonalEdgeStyle;rounded=0;orthogonalLoop=1;jettySize=auto;html=1;dashed=1;fontColor=#000000;exitX=0;exitY=0.25;exitDx=0;exitDy=0;entryX=0.5;entryY=0;entryDx=0;entryDy=0;" parent="9qhT2gbWu-hBArQtt8LR-1" source="GgJ-GGagvXka6RtjPfGx-24" target="GgJ-GGagvXka6RtjPfGx-72" edge="1">
          <mxGeometry relative="1" as="geometry">
            <mxPoint x="480.9" y="430" as="targetPoint" />
            <Array as="points">
              <mxPoint x="672" y="216" />
              <mxPoint x="402" y="216" />
            </Array>
          </mxGeometry>
        </mxCell>
        <mxCell id="GgJ-GGagvXka6RtjPfGx-43" style="edgeStyle=orthogonalEdgeStyle;rounded=0;orthogonalLoop=1;jettySize=auto;html=1;entryX=0.01;entryY=0.502;entryDx=0;entryDy=0;entryPerimeter=0;fontColor=#000000;" parent="9qhT2gbWu-hBArQtt8LR-1" source="GgJ-GGagvXka6RtjPfGx-44" target="GgJ-GGagvXka6RtjPfGx-73" edge="1">
          <mxGeometry relative="1" as="geometry" />
        </mxCell>
        <mxCell id="GgJ-GGagvXka6RtjPfGx-71" style="edgeStyle=orthogonalEdgeStyle;rounded=0;orthogonalLoop=1;jettySize=auto;html=1;entryX=0.492;entryY=0.812;entryDx=0;entryDy=0;entryPerimeter=0;fontColor=#000000;dashed=1;exitX=0.5;exitY=1;exitDx=0;exitDy=0;" parent="9qhT2gbWu-hBArQtt8LR-1" source="GgJ-GGagvXka6RtjPfGx-72" target="GgJ-GGagvXka6RtjPfGx-73" edge="1">
          <mxGeometry relative="1" as="geometry">
            <mxPoint x="381.57074074074063" y="526.4340229432105" as="sourcePoint" />
          </mxGeometry>
        </mxCell>
        <mxCell id="0N9autk_wKFo7xufBzyG-0" value="1/4&quot; VENT&lt;br&gt;BALL VALVE" style="verticalLabelPosition=middle;align=right;html=1;verticalAlign=middle;pointerEvents=1;dashed=0;shape=mxgraph.pid2valves.valve;valveType=ball;direction=south;fontFamily=Helvetica;horizontal=1;labelPosition=left;" parent="9qhT2gbWu-hBArQtt8LR-1" vertex="1">
          <mxGeometry x="931.6972610515865" y="356.7321113224497" width="37.497561946670864" height="61.0674683813458" as="geometry" />
        </mxCell>
        <mxCell id="0N9autk_wKFo7xufBzyG-1" value="M" style="text;html=1;strokeColor=none;fillColor=none;align=center;verticalAlign=middle;whiteSpace=wrap;rounded=0;fontColor=#000000;" parent="9qhT2gbWu-hBArQtt8LR-1" vertex="1">
          <mxGeometry x="945.1" y="383.58000000000004" width="10.7" height="8.2" as="geometry" />
        </mxCell>
        <mxCell id="4C3hLf-XN-ECmza6Cgg7-16" style="edgeStyle=orthogonalEdgeStyle;rounded=0;orthogonalLoop=1;jettySize=auto;html=1;entryX=0.5;entryY=1;entryDx=0;entryDy=0;dashed=1;fontColor=#000000;exitX=0.938;exitY=0.701;exitDx=0;exitDy=0;exitPerimeter=0;" parent="9qhT2gbWu-hBArQtt8LR-1" source="GgJ-GGagvXka6RtjPfGx-1" target="GgJ-GGagvXka6RtjPfGx-26" edge="1">
          <mxGeometry relative="1" as="geometry">
            <mxPoint x="835.772634393527" y="478.66666666666663" as="sourcePoint" />
            <mxPoint x="773.0110533219319" y="478.6652639555838" as="targetPoint" />
            <Array as="points">
              <mxPoint x="835.6" y="508" />
              <mxPoint x="847.6" y="508" />
            </Array>
          </mxGeometry>
        </mxCell>
        <mxCell id="4C3hLf-XN-ECmza6Cgg7-17" style="edgeStyle=orthogonalEdgeStyle;rounded=0;orthogonalLoop=1;jettySize=auto;html=1;entryX=0.941;entryY=0.318;entryDx=0;entryDy=0;dashed=1;fontColor=#000000;exitX=0.5;exitY=1;exitDx=0;exitDy=0;entryPerimeter=0;" parent="9qhT2gbWu-hBArQtt8LR-1" source="GgJ-GGagvXka6RtjPfGx-28" target="GgJ-GGagvXka6RtjPfGx-1" edge="1">
          <mxGeometry relative="1" as="geometry">
            <mxPoint x="835.772634393527" y="478.64367816091965" as="sourcePoint" />
            <mxPoint x="773.0110533219323" y="478.6652639555838" as="targetPoint" />
            <Array as="points">
              <mxPoint x="740.6" y="508" />
            </Array>
          </mxGeometry>
        </mxCell>
        <mxCell id="6kRV9SNDZiWVqRsWNqKr-0" value="SENSOR&lt;br&gt;PORT" style="shape=mxgraph.pid.pumps.injector;html=1;pointerEvents=1;align=center;verticalLabelPosition=top;verticalAlign=bottom;dashed=0;direction=west;fontFamily=Helvetica;labelPosition=center;" parent="9qhT2gbWu-hBArQtt8LR-1" vertex="1">
          <mxGeometry x="91.00000000000001" y="485.36999999999995" width="70" height="35" as="geometry" />
        </mxCell>
        <mxCell id="6kRV9SNDZiWVqRsWNqKr-4" value="" style="group" parent="9qhT2gbWu-hBArQtt8LR-1" vertex="1" connectable="0">
          <mxGeometry x="318.4023078342489" y="571.0570645397872" width="61.067468381345805" height="37.497561946670885" as="geometry" />
        </mxCell>
        <mxCell id="GgJ-GGagvXka6RtjPfGx-73" value="1/2&quot; THROTTLE&lt;br&gt;BALL VALVE" style="verticalLabelPosition=bottom;align=center;html=1;verticalAlign=top;pointerEvents=1;dashed=0;shape=mxgraph.pid2valves.valve;valveType=ball;direction=west;fontFamily=Helvetica;horizontal=1;labelPosition=center;" parent="6kRV9SNDZiWVqRsWNqKr-4" vertex="1">
          <mxGeometry width="61.0674683813458" height="37.497561946670864" as="geometry" />
        </mxCell>
        <mxCell id="GgJ-GGagvXka6RtjPfGx-74" value="M" style="text;html=1;strokeColor=none;fillColor=none;align=center;verticalAlign=middle;whiteSpace=wrap;rounded=0;fontColor=#000000;" parent="6kRV9SNDZiWVqRsWNqKr-4" vertex="1">
          <mxGeometry x="25.18769216575106" y="14.652935460212802" width="10.7" height="8.2" as="geometry" />
        </mxCell>
        <mxCell id="6kRV9SNDZiWVqRsWNqKr-10" style="edgeStyle=orthogonalEdgeStyle;rounded=0;orthogonalLoop=1;jettySize=auto;html=1;entryX=0;entryY=0.5;entryDx=0;entryDy=0;entryPerimeter=0;" parent="9qhT2gbWu-hBArQtt8LR-1" source="6kRV9SNDZiWVqRsWNqKr-8" target="6kRV9SNDZiWVqRsWNqKr-0" edge="1">
          <mxGeometry relative="1" as="geometry" />
        </mxCell>
        <mxCell id="6kRV9SNDZiWVqRsWNqKr-8" value="1/4&quot;SW -&lt;br&gt;1/4&quot; NPT" style="verticalLabelPosition=bottom;align=center;dashed=0;html=1;verticalAlign=top;shape=mxgraph.pid.piping.concentric_reducer;direction=west;fontFamily=Helvetica;horizontal=1;labelPosition=center;" parent="9qhT2gbWu-hBArQtt8LR-1" vertex="1">
          <mxGeometry x="181.1033848391064" y="488.3008244327214" width="28.93382300161931" height="29.135374375939065" as="geometry" />
        </mxCell>
        <mxCell id="7fU9hJwui9hkNI9wWa8o-2" value="" style="group" parent="9qhT2gbWu-hBArQtt8LR-1" vertex="1" connectable="0">
          <mxGeometry x="688.0092735118066" y="100.00000000000023" width="165.00072648819344" height="157.0899999999998" as="geometry" />
        </mxCell>
        <mxCell id="GgJ-GGagvXka6RtjPfGx-24" value="GATEWAY" style="rounded=1;whiteSpace=wrap;html=1;fontColor=#000000;strokeColor=#000000;strokeWidth=1;fillColor=default;" parent="7fU9hJwui9hkNI9wWa8o-2" vertex="1">
          <mxGeometry y="102.90277175336564" width="105.88204314060825" height="54.187228246634184" as="geometry" />
        </mxCell>
        <mxCell id="7fU9hJwui9hkNI9wWa8o-1" value="" style="group" parent="7fU9hJwui9hkNI9wWa8o-2" vertex="1" connectable="0">
          <mxGeometry x="52.77072648819296" width="112.23000000000047" height="60" as="geometry" />
        </mxCell>
        <mxCell id="4C3hLf-XN-ECmza6Cgg7-19" style="edgeStyle=orthogonalEdgeStyle;rounded=0;orthogonalLoop=1;jettySize=auto;html=1;dashed=1;fontSize=12;startArrow=classic;startFill=1;endArrow=none;endFill=0;" parent="7fU9hJwui9hkNI9wWa8o-1" source="GgJ-GGagvXka6RtjPfGx-24" edge="1">
          <mxGeometry relative="1" as="geometry">
            <mxPoint x="0.17029508211123812" y="59.99999999999977" as="targetPoint" />
          </mxGeometry>
        </mxCell>
        <mxCell id="GgJ-GGagvXka6RtjPfGx-75" value="" style="shape=flexArrow;endArrow=classic;html=1;rounded=0;fontColor=#000000;" parent="7fU9hJwui9hkNI9wWa8o-1" edge="1">
          <mxGeometry width="50" height="50" relative="1" as="geometry">
            <mxPoint as="sourcePoint" />
            <mxPoint y="60" as="targetPoint" />
          </mxGeometry>
        </mxCell>
        <mxCell id="4C3hLf-XN-ECmza6Cgg7-20" value="GROUND&lt;br&gt;STATION&lt;br&gt;COMMANDS" style="text;html=1;align=center;verticalAlign=middle;resizable=0;points=[];autosize=1;strokeColor=none;fillColor=none;fontSize=12;" parent="7fU9hJwui9hkNI9wWa8o-1" vertex="1">
          <mxGeometry x="22.230000000000473" y="9.999999999999773" width="90" height="50" as="geometry" />
        </mxCell>
        <mxCell id="7fU9hJwui9hkNI9wWa8o-4" style="edgeStyle=orthogonalEdgeStyle;rounded=0;orthogonalLoop=1;jettySize=auto;html=1;entryX=-0.02;entryY=0.508;entryDx=0;entryDy=0;entryPerimeter=0;" parent="9qhT2gbWu-hBArQtt8LR-1" source="7fU9hJwui9hkNI9wWa8o-3" target="GgJ-GGagvXka6RtjPfGx-38" edge="1">
          <mxGeometry relative="1" as="geometry" />
        </mxCell>
        <mxCell id="7fU9hJwui9hkNI9wWa8o-3" value="3/8&quot;SW -&amp;nbsp;&lt;br&gt;1/4&quot;SW" style="verticalLabelPosition=middle;align=right;dashed=0;html=1;verticalAlign=middle;shape=mxgraph.pid.piping.concentric_reducer;direction=south;fontFamily=Helvetica;horizontal=1;labelPosition=left;" parent="9qhT2gbWu-hBArQtt8LR-1" vertex="1">
          <mxGeometry x="510.17319183811213" y="404.6916001198813" width="29.135374375939065" height="28.93382300161931" as="geometry" />
        </mxCell>
        <mxCell id="0fEEbLnaMbrbdZnxikDv-3" style="edgeStyle=orthogonalEdgeStyle;rounded=0;orthogonalLoop=1;jettySize=auto;html=1;entryX=0;entryY=0.5;entryDx=0;entryDy=0;entryPerimeter=0;exitX=0;exitY=0;exitDx=54.12218456971357;exitDy=6;exitPerimeter=0;" parent="9qhT2gbWu-hBArQtt8LR-1" source="0fEEbLnaMbrbdZnxikDv-0" target="GgJ-GGagvXka6RtjPfGx-16" edge="1">
          <mxGeometry relative="1" as="geometry" />
        </mxCell>
        <mxCell id="0fEEbLnaMbrbdZnxikDv-0" value="1/4&quot; TEE" style="shape=tee;whiteSpace=wrap;html=1;rotation=0;dx=12;dy=12;fontFamily=Helvetica;direction=south;flipV=0;verticalAlign=middle;labelPosition=right;verticalLabelPosition=middle;align=left;" parent="9qhT2gbWu-hBArQtt8LR-1" vertex="1">
          <mxGeometry x="912.9236776265748" y="522.6369759779324" width="43.952699850725566" height="54.12218456971357" as="geometry" />
        </mxCell>
        <mxCell id="eqsmqjm_QYmk94bziBWT-2" style="edgeStyle=orthogonalEdgeStyle;rounded=0;orthogonalLoop=1;jettySize=auto;html=1;entryX=0;entryY=0.5;entryDx=0;entryDy=0;entryPerimeter=0;" parent="9qhT2gbWu-hBArQtt8LR-1" source="RzDnc0l47ojwkEPs9ZFc-0" target="eqsmqjm_QYmk94bziBWT-0" edge="1">
          <mxGeometry relative="1" as="geometry" />
        </mxCell>
        <mxCell id="RzDnc0l47ojwkEPs9ZFc-0" value="&lt;table style=&quot;font-size: 1em ; width: 100% ; height: 100%&quot; cellspacing=&quot;0&quot; cellpadding=&quot;4&quot; border=&quot;0&quot;&gt;&lt;tbody&gt;&lt;tr&gt;&lt;td&gt;PT&lt;/td&gt;&lt;/tr&gt;&lt;tr&gt;&lt;td&gt;01&lt;/td&gt;&lt;/tr&gt;&lt;/tbody&gt;&lt;/table&gt; " style="html=1;outlineConnect=0;align=center;dashed=0;aspect=fixed;shape=mxgraph.pid2inst.discInst;mounting=room;fontColor=#000000;strokeColor=#000000;strokeWidth=1;fillColor=default;" parent="9qhT2gbWu-hBArQtt8LR-1" vertex="1">
          <mxGeometry x="282.51457279279646" y="480.81445789023354" width="44.117517975253435" height="44.117517975253435" as="geometry" />
        </mxCell>
        <mxCell id="RzDnc0l47ojwkEPs9ZFc-1" style="edgeStyle=orthogonalEdgeStyle;rounded=0;orthogonalLoop=1;jettySize=auto;html=1;exitX=0.25;exitY=0;exitDx=0;exitDy=0;dashed=1;fontSize=12;startArrow=none;startFill=0;endArrow=classic;endFill=1;entryX=1;entryY=0.5;entryDx=0;entryDy=0;" parent="9qhT2gbWu-hBArQtt8LR-1" source="GgJ-GGagvXka6RtjPfGx-24" target="RzDnc0l47ojwkEPs9ZFc-0" edge="1">
          <mxGeometry relative="1" as="geometry">
            <mxPoint x="713.3092735118064" y="253.54319293834158" as="sourcePoint" />
            <mxPoint x="330" y="450" as="targetPoint" />
            <Array as="points">
              <mxPoint x="730" y="190" />
              <mxPoint x="360" y="190" />
              <mxPoint x="360" y="503" />
            </Array>
          </mxGeometry>
        </mxCell>
        <mxCell id="eqsmqjm_QYmk94bziBWT-1" style="edgeStyle=orthogonalEdgeStyle;rounded=0;orthogonalLoop=1;jettySize=auto;html=1;entryX=0;entryY=0.5;entryDx=0;entryDy=0;entryPerimeter=0;" parent="9qhT2gbWu-hBArQtt8LR-1" source="eqsmqjm_QYmk94bziBWT-0" target="6kRV9SNDZiWVqRsWNqKr-8" edge="1">
          <mxGeometry relative="1" as="geometry" />
        </mxCell>
        <mxCell id="eqsmqjm_QYmk94bziBWT-0" value="1/8&quot;NPT -&lt;br&gt;1/4&quot;SW" style="verticalLabelPosition=top;align=center;dashed=0;html=1;verticalAlign=bottom;shape=mxgraph.pid.piping.concentric_reducer;direction=west;fontFamily=Helvetica;horizontal=1;labelPosition=center;" parent="9qhT2gbWu-hBArQtt8LR-1" vertex="1">
          <mxGeometry x="234.00338483910642" y="488.3008244327214" width="28.93382300161931" height="29.135374375939065" as="geometry" />
        </mxCell>
      </root>
    </mxGraphModel>
  </diagram>
  <diagram name="Hotfire feed system" id="f_nsKfRmWZGpGSNc_Jyl">
    <mxGraphModel dx="834" dy="556" grid="1" gridSize="10" guides="1" tooltips="1" connect="1" arrows="1" fold="1" page="1" pageScale="1" pageWidth="1169" pageHeight="827" math="0" shadow="0">
      <root>
        <mxCell id="do8OBFAU8eJi8FT_Qq7B-0" />
        <mxCell id="do8OBFAU8eJi8FT_Qq7B-1" parent="do8OBFAU8eJi8FT_Qq7B-0" />
        <mxCell id="do8OBFAU8eJi8FT_Qq7B-2" value="&lt;b&gt;&lt;font&gt;&lt;u style=&quot;font-size: 20px&quot;&gt;HYPNOS HOTFIRE FEED SYSTEM CONFIG P&amp;amp;ID&lt;/u&gt;&lt;br&gt;&lt;span style=&quot;font-size: 20px&quot;&gt;REV 1.8&lt;/span&gt;&lt;br&gt;&lt;font style=&quot;font-size: 14px&quot;&gt;LUC PAOLI&lt;/font&gt;&lt;br&gt;&lt;/font&gt;&lt;/b&gt;" style="text;html=1;strokeColor=none;fillColor=none;align=center;verticalAlign=middle;whiteSpace=wrap;rounded=0;fontFamily=Helvetica;" vertex="1" parent="do8OBFAU8eJi8FT_Qq7B-1">
          <mxGeometry x="40" y="42" width="262.63" height="88" as="geometry" />
        </mxCell>
        <mxCell id="do8OBFAU8eJi8FT_Qq7B-32" value="3/8&quot;SW -&lt;br&gt;3/8&quot;BSPP" style="verticalLabelPosition=top;align=center;dashed=0;html=1;verticalAlign=bottom;shape=mxgraph.pid.piping.concentric_reducer;direction=west;fontFamily=Helvetica;horizontal=1;labelPosition=center;" vertex="1" parent="do8OBFAU8eJi8FT_Qq7B-1">
          <mxGeometry x="417.593967525272" y="563.2408244327214" width="28.93382300161931" height="29.135374375939065" as="geometry" />
        </mxCell>
        <mxCell id="do8OBFAU8eJi8FT_Qq7B-34" style="edgeStyle=orthogonalEdgeStyle;rounded=0;orthogonalLoop=1;jettySize=auto;html=1;entryX=0;entryY=0;entryDx=0;entryDy=6;entryPerimeter=0;" edge="1" parent="do8OBFAU8eJi8FT_Qq7B-1" source="do8OBFAU8eJi8FT_Qq7B-35" target="kqchYAZ20qUO-iVt_MaB-8">
          <mxGeometry relative="1" as="geometry" />
        </mxCell>
        <mxCell id="do8OBFAU8eJi8FT_Qq7B-35" value="3/8&quot;SW -&lt;br&gt;1/2&quot;BSPP" style="verticalLabelPosition=top;align=center;dashed=0;html=1;verticalAlign=bottom;shape=mxgraph.pid.piping.concentric_reducer;direction=east;fontFamily=Helvetica;horizontal=1;labelPosition=center;" vertex="1" parent="do8OBFAU8eJi8FT_Qq7B-1">
          <mxGeometry x="260.0049878549088" y="563.2408244327214" width="28.93382300161931" height="29.135374375939065" as="geometry" />
        </mxCell>
        <mxCell id="do8OBFAU8eJi8FT_Qq7B-36" style="edgeStyle=orthogonalEdgeStyle;rounded=0;orthogonalLoop=1;jettySize=auto;html=1;entryX=1;entryY=0.5;entryDx=0;entryDy=0;entryPerimeter=0;fontColor=#000000;exitX=1.004;exitY=0.514;exitDx=0;exitDy=0;exitPerimeter=0;" edge="1" parent="do8OBFAU8eJi8FT_Qq7B-1" source="do8OBFAU8eJi8FT_Qq7B-53" target="do8OBFAU8eJi8FT_Qq7B-35">
          <mxGeometry relative="1" as="geometry">
            <mxPoint x="317.40230783424886" y="577.8571428571429" as="sourcePoint" />
          </mxGeometry>
        </mxCell>
        <mxCell id="do8OBFAU8eJi8FT_Qq7B-38" value="INJECTORS" style="shape=mxgraph.pid.pumps.injector;html=1;pointerEvents=1;align=center;verticalLabelPosition=top;verticalAlign=bottom;dashed=0;direction=west;fontFamily=Helvetica;labelPosition=center;" vertex="1" parent="do8OBFAU8eJi8FT_Qq7B-1">
          <mxGeometry x="40.000000000000014" y="560.31" width="70" height="35" as="geometry" />
        </mxCell>
        <mxCell id="do8OBFAU8eJi8FT_Qq7B-39" style="edgeStyle=orthogonalEdgeStyle;rounded=0;orthogonalLoop=1;jettySize=auto;html=1;entryX=0;entryY=0.5;entryDx=0;entryDy=0;entryPerimeter=0;fontColor=#000000;" edge="1" parent="do8OBFAU8eJi8FT_Qq7B-1" source="do8OBFAU8eJi8FT_Qq7B-40" target="do8OBFAU8eJi8FT_Qq7B-38">
          <mxGeometry relative="1" as="geometry" />
        </mxCell>
        <mxCell id="do8OBFAU8eJi8FT_Qq7B-40" value="3/8&quot;SW -&lt;br&gt;1/2&quot;BSPP" style="verticalLabelPosition=bottom;align=center;dashed=0;html=1;verticalAlign=top;shape=mxgraph.pid.piping.concentric_reducer;direction=west;fontFamily=Helvetica;horizontal=1;labelPosition=center;" vertex="1" parent="do8OBFAU8eJi8FT_Qq7B-1">
          <mxGeometry x="130.1033848391064" y="563.2408244327214" width="28.93382300161931" height="29.135374375939065" as="geometry" />
        </mxCell>
        <mxCell id="do8OBFAU8eJi8FT_Qq7B-41" value="MC&lt;br&gt;01&lt;br&gt; " style="html=1;outlineConnect=0;align=center;dashed=0;aspect=fixed;shape=mxgraph.pid2inst.progLogCont;mounting=field;fontColor=#000000;strokeColor=#000000;strokeWidth=1;fillColor=default;" vertex="1" parent="do8OBFAU8eJi8FT_Qq7B-1">
          <mxGeometry x="336.8735353466787" y="473.36650496795716" width="44.117517975253435" height="44.117517975253435" as="geometry" />
        </mxCell>
        <mxCell id="do8OBFAU8eJi8FT_Qq7B-44" style="edgeStyle=orthogonalEdgeStyle;rounded=0;orthogonalLoop=1;jettySize=auto;html=1;dashed=1;fontColor=#000000;exitX=0;exitY=0.25;exitDx=0;exitDy=0;entryX=0.5;entryY=0;entryDx=0;entryDy=0;" edge="1" parent="do8OBFAU8eJi8FT_Qq7B-1" source="do8OBFAU8eJi8FT_Qq7B-58" target="do8OBFAU8eJi8FT_Qq7B-41">
          <mxGeometry relative="1" as="geometry">
            <mxPoint x="534.9" y="418" as="targetPoint" />
            <Array as="points">
              <mxPoint x="726" y="204" />
              <mxPoint x="456" y="204" />
            </Array>
          </mxGeometry>
        </mxCell>
        <mxCell id="do8OBFAU8eJi8FT_Qq7B-45" style="edgeStyle=orthogonalEdgeStyle;rounded=0;orthogonalLoop=1;jettySize=auto;html=1;entryX=0.01;entryY=0.502;entryDx=0;entryDy=0;entryPerimeter=0;fontColor=#000000;" edge="1" parent="do8OBFAU8eJi8FT_Qq7B-1" source="do8OBFAU8eJi8FT_Qq7B-32" target="do8OBFAU8eJi8FT_Qq7B-53">
          <mxGeometry relative="1" as="geometry" />
        </mxCell>
        <mxCell id="do8OBFAU8eJi8FT_Qq7B-46" style="edgeStyle=orthogonalEdgeStyle;rounded=0;orthogonalLoop=1;jettySize=auto;html=1;entryX=0.492;entryY=0.812;entryDx=0;entryDy=0;entryPerimeter=0;fontColor=#000000;dashed=1;exitX=0.5;exitY=1;exitDx=0;exitDy=0;" edge="1" parent="do8OBFAU8eJi8FT_Qq7B-1" source="do8OBFAU8eJi8FT_Qq7B-41" target="do8OBFAU8eJi8FT_Qq7B-53">
          <mxGeometry relative="1" as="geometry">
            <mxPoint x="391.57074074074063" y="514.4340229432105" as="sourcePoint" />
          </mxGeometry>
        </mxCell>
        <mxCell id="do8OBFAU8eJi8FT_Qq7B-51" value="SENSOR&lt;br&gt;PORT" style="shape=mxgraph.pid.pumps.injector;html=1;pointerEvents=1;align=center;verticalLabelPosition=top;verticalAlign=bottom;dashed=0;direction=west;fontFamily=Helvetica;labelPosition=center;" vertex="1" parent="do8OBFAU8eJi8FT_Qq7B-1">
          <mxGeometry x="40.000000000000014" y="473.36999999999995" width="70" height="35" as="geometry" />
        </mxCell>
        <mxCell id="do8OBFAU8eJi8FT_Qq7B-52" value="" style="group" vertex="1" connectable="0" parent="do8OBFAU8eJi8FT_Qq7B-1">
          <mxGeometry x="328.4023078342489" y="559.0570645397872" width="61.067468381345805" height="37.497561946670885" as="geometry" />
        </mxCell>
        <mxCell id="do8OBFAU8eJi8FT_Qq7B-53" value="1/2&quot; THROTTLE&lt;br&gt;BALL VALVE" style="verticalLabelPosition=bottom;align=center;html=1;verticalAlign=top;pointerEvents=1;dashed=0;shape=mxgraph.pid2valves.valve;valveType=ball;direction=west;fontFamily=Helvetica;horizontal=1;labelPosition=center;" vertex="1" parent="do8OBFAU8eJi8FT_Qq7B-52">
          <mxGeometry width="61.0674683813458" height="37.497561946670864" as="geometry" />
        </mxCell>
        <mxCell id="do8OBFAU8eJi8FT_Qq7B-54" value="M" style="text;html=1;strokeColor=none;fillColor=none;align=center;verticalAlign=middle;whiteSpace=wrap;rounded=0;fontColor=#000000;" vertex="1" parent="do8OBFAU8eJi8FT_Qq7B-52">
          <mxGeometry x="25.18769216575106" y="14.652935460212802" width="10.7" height="8.2" as="geometry" />
        </mxCell>
        <mxCell id="do8OBFAU8eJi8FT_Qq7B-55" style="edgeStyle=orthogonalEdgeStyle;rounded=0;orthogonalLoop=1;jettySize=auto;html=1;entryX=0;entryY=0.5;entryDx=0;entryDy=0;entryPerimeter=0;" edge="1" parent="do8OBFAU8eJi8FT_Qq7B-1" source="do8OBFAU8eJi8FT_Qq7B-56" target="do8OBFAU8eJi8FT_Qq7B-51">
          <mxGeometry relative="1" as="geometry" />
        </mxCell>
        <mxCell id="do8OBFAU8eJi8FT_Qq7B-56" value="1/4&quot;SW -&lt;br&gt;1/4&quot; NPT" style="verticalLabelPosition=bottom;align=center;dashed=0;html=1;verticalAlign=top;shape=mxgraph.pid.piping.concentric_reducer;direction=west;fontFamily=Helvetica;horizontal=1;labelPosition=center;" vertex="1" parent="do8OBFAU8eJi8FT_Qq7B-1">
          <mxGeometry x="130.1033848391064" y="476.3008244327214" width="28.93382300161931" height="29.135374375939065" as="geometry" />
        </mxCell>
        <mxCell id="do8OBFAU8eJi8FT_Qq7B-67" style="edgeStyle=orthogonalEdgeStyle;rounded=0;orthogonalLoop=1;jettySize=auto;html=1;entryX=0;entryY=0.5;entryDx=0;entryDy=0;entryPerimeter=0;" edge="1" parent="do8OBFAU8eJi8FT_Qq7B-1" source="do8OBFAU8eJi8FT_Qq7B-68" target="do8OBFAU8eJi8FT_Qq7B-71">
          <mxGeometry relative="1" as="geometry" />
        </mxCell>
        <mxCell id="do8OBFAU8eJi8FT_Qq7B-68" value="&lt;table style=&quot;font-size: 1em ; width: 100% ; height: 100%&quot; cellspacing=&quot;0&quot; cellpadding=&quot;4&quot; border=&quot;0&quot;&gt;&lt;tbody&gt;&lt;tr&gt;&lt;td&gt;PT&lt;/td&gt;&lt;/tr&gt;&lt;tr&gt;&lt;td&gt;01&lt;/td&gt;&lt;/tr&gt;&lt;/tbody&gt;&lt;/table&gt; " style="html=1;outlineConnect=0;align=center;dashed=0;aspect=fixed;shape=mxgraph.pid2inst.discInst;mounting=room;fontColor=#000000;strokeColor=#000000;strokeWidth=1;fillColor=default;" vertex="1" parent="do8OBFAU8eJi8FT_Qq7B-1">
          <mxGeometry x="274.51457279279646" y="468.81445789023354" width="44.117517975253435" height="44.117517975253435" as="geometry" />
        </mxCell>
        <mxCell id="do8OBFAU8eJi8FT_Qq7B-70" style="edgeStyle=orthogonalEdgeStyle;rounded=0;orthogonalLoop=1;jettySize=auto;html=1;entryX=0;entryY=0.5;entryDx=0;entryDy=0;entryPerimeter=0;" edge="1" parent="do8OBFAU8eJi8FT_Qq7B-1" source="do8OBFAU8eJi8FT_Qq7B-71" target="do8OBFAU8eJi8FT_Qq7B-56">
          <mxGeometry relative="1" as="geometry" />
        </mxCell>
        <mxCell id="do8OBFAU8eJi8FT_Qq7B-71" value="1/8&quot;NPT -&lt;br&gt;1/4&quot;SW" style="verticalLabelPosition=top;align=center;dashed=0;html=1;verticalAlign=bottom;shape=mxgraph.pid.piping.concentric_reducer;direction=west;fontFamily=Helvetica;horizontal=1;labelPosition=center;" vertex="1" parent="do8OBFAU8eJi8FT_Qq7B-1">
          <mxGeometry x="226.00338483910642" y="476.3008244327214" width="28.93382300161931" height="29.135374375939065" as="geometry" />
        </mxCell>
        <mxCell id="fAPus6apqTpp3mpUv0Bu-4" style="edgeStyle=orthogonalEdgeStyle;rounded=0;orthogonalLoop=1;jettySize=auto;html=1;entryX=0;entryY=0.5;entryDx=0;entryDy=0;entryPerimeter=0;exitX=0;exitY=0;exitDx=0;exitDy=6;exitPerimeter=0;" edge="1" parent="do8OBFAU8eJi8FT_Qq7B-1" source="fAPus6apqTpp3mpUv0Bu-1" target="do8OBFAU8eJi8FT_Qq7B-32">
          <mxGeometry relative="1" as="geometry" />
        </mxCell>
        <mxCell id="fAPus6apqTpp3mpUv0Bu-1" value="3/8&quot;- 1/4&quot;-3/8&quot; TEE" style="shape=tee;whiteSpace=wrap;html=1;rotation=0;dx=12;dy=12;fontFamily=Helvetica;direction=east;flipV=1;verticalAlign=top;labelPosition=center;verticalLabelPosition=bottom;align=center;" vertex="1" parent="do8OBFAU8eJi8FT_Qq7B-1">
          <mxGeometry x="473.99893526708047" y="539.7717183374264" width="54.12218456971357" height="43.952699850725566" as="geometry" />
        </mxCell>
        <mxCell id="kqchYAZ20qUO-iVt_MaB-4" style="edgeStyle=orthogonalEdgeStyle;rounded=0;orthogonalLoop=1;jettySize=auto;html=1;entryX=0;entryY=0.5;entryDx=0;entryDy=0;entryPerimeter=0;" edge="1" parent="do8OBFAU8eJi8FT_Qq7B-1" source="kqchYAZ20qUO-iVt_MaB-0" target="kqchYAZ20qUO-iVt_MaB-2">
          <mxGeometry relative="1" as="geometry" />
        </mxCell>
        <mxCell id="kqchYAZ20qUO-iVt_MaB-0" value="&lt;table style=&quot;font-size: 1em ; width: 100% ; height: 100%&quot; cellspacing=&quot;0&quot; cellpadding=&quot;4&quot; border=&quot;0&quot;&gt;&lt;tbody&gt;&lt;tr&gt;&lt;td&gt;PT&lt;/td&gt;&lt;/tr&gt;&lt;tr&gt;&lt;td&gt;03&lt;/td&gt;&lt;/tr&gt;&lt;/tbody&gt;&lt;/table&gt; " style="html=1;outlineConnect=0;align=center;dashed=0;aspect=fixed;shape=mxgraph.pid2inst.discInst;mounting=room;fontColor=#000000;strokeColor=#000000;strokeWidth=1;fillColor=default;" vertex="1" parent="do8OBFAU8eJi8FT_Qq7B-1">
          <mxGeometry x="479.00457279279647" y="413.26445789023353" width="44.117517975253435" height="44.117517975253435" as="geometry" />
        </mxCell>
        <mxCell id="kqchYAZ20qUO-iVt_MaB-3" style="edgeStyle=orthogonalEdgeStyle;rounded=0;orthogonalLoop=1;jettySize=auto;html=1;entryX=0.5;entryY=1;entryDx=0;entryDy=0;entryPerimeter=0;" edge="1" parent="do8OBFAU8eJi8FT_Qq7B-1" source="kqchYAZ20qUO-iVt_MaB-2" target="fAPus6apqTpp3mpUv0Bu-1">
          <mxGeometry relative="1" as="geometry" />
        </mxCell>
        <mxCell id="kqchYAZ20qUO-iVt_MaB-2" value="1/8&quot;NPT -&lt;br&gt;1/4&quot;SW" style="verticalLabelPosition=middle;align=right;dashed=0;html=1;verticalAlign=middle;shape=mxgraph.pid.piping.concentric_reducer;direction=south;fontFamily=Helvetica;horizontal=1;labelPosition=left;" vertex="1" parent="do8OBFAU8eJi8FT_Qq7B-1">
          <mxGeometry x="486.49260915194657" y="489.3116001198812" width="29.135374375939065" height="28.93382300161931" as="geometry" />
        </mxCell>
        <mxCell id="kqchYAZ20qUO-iVt_MaB-5" style="edgeStyle=orthogonalEdgeStyle;rounded=0;orthogonalLoop=1;jettySize=auto;html=1;entryX=0;entryY=0.5;entryDx=0;entryDy=0;dashed=1;" edge="1" parent="do8OBFAU8eJi8FT_Qq7B-1" source="do8OBFAU8eJi8FT_Qq7B-58" target="kqchYAZ20qUO-iVt_MaB-0">
          <mxGeometry relative="1" as="geometry">
            <Array as="points">
              <mxPoint x="440" y="218" />
              <mxPoint x="440" y="435" />
            </Array>
          </mxGeometry>
        </mxCell>
        <mxCell id="fAPus6apqTpp3mpUv0Bu-3" style="edgeStyle=orthogonalEdgeStyle;rounded=0;orthogonalLoop=1;jettySize=auto;html=1;entryX=0;entryY=0;entryDx=54.12218456971357;entryDy=6;entryPerimeter=0;exitX=0;exitY=0;exitDx=54.12218456971357;exitDy=6;exitPerimeter=0;" edge="1" parent="do8OBFAU8eJi8FT_Qq7B-1" source="do8OBFAU8eJi8FT_Qq7B-24" target="fAPus6apqTpp3mpUv0Bu-1">
          <mxGeometry relative="1" as="geometry" />
        </mxCell>
        <mxCell id="do8OBFAU8eJi8FT_Qq7B-3" value="3/8&quot;" style="edgeStyle=orthogonalEdgeStyle;rounded=0;orthogonalLoop=1;jettySize=auto;html=1;entryX=0;entryY=0;entryDx=0;entryDy=6;entryPerimeter=0;fontSize=12;startArrow=none;startFill=0;endArrow=classic;endFill=1;" edge="1" parent="do8OBFAU8eJi8FT_Qq7B-1" target="do8OBFAU8eJi8FT_Qq7B-24">
          <mxGeometry relative="1" as="geometry">
            <mxPoint x="787.6000000000001" y="577" as="sourcePoint" />
            <Array as="points">
              <mxPoint x="755.6000000000001" y="578" />
            </Array>
          </mxGeometry>
        </mxCell>
        <mxCell id="do8OBFAU8eJi8FT_Qq7B-5" value="" style="shape=mxgraph.pid.vessels.vessel_(dished_ends,_electrical_heating);pointerEvents=1;align=center;verticalLabelPosition=middle;verticalAlign=middle;dashed=0;fontColor=#000000;strokeColor=#000000;strokeWidth=1;fillColor=default;labelPosition=center;horizontal=1;html=1;direction=north;flipV=0;" vertex="1" parent="do8OBFAU8eJi8FT_Qq7B-1">
          <mxGeometry x="784.4774156857695" y="489.30961173101434" width="182.01123215870558" height="110.71353851258142" as="geometry" />
        </mxCell>
        <mxCell id="do8OBFAU8eJi8FT_Qq7B-6" value="" style="edgeStyle=orthogonalEdgeStyle;rounded=0;orthogonalLoop=1;jettySize=auto;html=1;fontColor=#000000;entryX=0;entryY=0.5;entryDx=0;entryDy=0;entryPerimeter=0;exitX=0.678;exitY=0.023;exitDx=0;exitDy=0;exitPerimeter=0;" edge="1" parent="do8OBFAU8eJi8FT_Qq7B-1" source="do8OBFAU8eJi8FT_Qq7B-5" target="do8OBFAU8eJi8FT_Qq7B-21">
          <mxGeometry relative="1" as="geometry">
            <mxPoint x="753.4278130573646" y="525.0824696596644" as="targetPoint" />
            <Array as="points" />
            <mxPoint x="785.8400000000001" y="524.85" as="sourcePoint" />
          </mxGeometry>
        </mxCell>
        <mxCell id="do8OBFAU8eJi8FT_Qq7B-7" value="&lt;span&gt;TEMPERATURE&lt;/span&gt;&lt;br&gt;&lt;span&gt;CONTROLLED&lt;/span&gt;&lt;br&gt;&lt;span&gt;RUN TANK&lt;/span&gt;" style="text;strokeColor=none;fillColor=none;align=center;verticalAlign=middle;spacingLeft=4;spacingRight=4;overflow=hidden;points=[[0,0.5],[1,0.5]];portConstraint=eastwest;rotatable=0;fontColor=#000000;html=1;flipV=1;direction=east;" vertex="1" parent="do8OBFAU8eJi8FT_Qq7B-1">
          <mxGeometry x="796.0670876578686" y="510.46722964359924" width="158.82306471091238" height="99.34325178549601" as="geometry" />
        </mxCell>
        <mxCell id="do8OBFAU8eJi8FT_Qq7B-8" value="1/4&quot;BSPP -&lt;br&gt;1/4&quot; SW" style="verticalLabelPosition=middle;align=right;dashed=0;html=1;verticalAlign=middle;shape=mxgraph.pid.piping.concentric_reducer;direction=north;fontFamily=Helvetica;horizontal=1;labelPosition=left;" vertex="1" parent="do8OBFAU8eJi8FT_Qq7B-1">
          <mxGeometry x="1020.6199515755006" y="449.106980550545" width="28.465314303860616" height="29.614911547454923" as="geometry" />
        </mxCell>
        <mxCell id="do8OBFAU8eJi8FT_Qq7B-9" value="" style="edgeStyle=orthogonalEdgeStyle;rounded=0;orthogonalLoop=1;jettySize=auto;html=1;entryX=0;entryY=0.5;entryDx=0;entryDy=0;entryPerimeter=0;fontColor=#000000;exitX=0;exitY=0;exitDx=0;exitDy=6;exitPerimeter=0;" edge="1" parent="do8OBFAU8eJi8FT_Qq7B-1" source="do8OBFAU8eJi8FT_Qq7B-66" target="do8OBFAU8eJi8FT_Qq7B-8">
          <mxGeometry relative="1" as="geometry">
            <mxPoint x="1036.53" y="496" as="sourcePoint" />
            <Array as="points" />
          </mxGeometry>
        </mxCell>
        <mxCell id="do8OBFAU8eJi8FT_Qq7B-10" value="TO ATM" style="edgeStyle=orthogonalEdgeStyle;rounded=0;orthogonalLoop=1;jettySize=auto;html=1;fontColor=#000000;exitX=0.005;exitY=0.484;exitDx=0;exitDy=0;exitPerimeter=0;" edge="1" parent="do8OBFAU8eJi8FT_Qq7B-1" source="do8OBFAU8eJi8FT_Qq7B-47">
          <mxGeometry relative="1" as="geometry">
            <mxPoint x="1035.7540302560171" y="306.18632842649345" as="targetPoint" />
            <mxPoint x="1035.53" y="337.0511472575829" as="sourcePoint" />
          </mxGeometry>
        </mxCell>
        <mxCell id="do8OBFAU8eJi8FT_Qq7B-12" value="1/4&quot;BSPP -&lt;br&gt;1/4&quot; SW" style="verticalLabelPosition=middle;align=left;dashed=0;html=1;verticalAlign=middle;shape=mxgraph.pid.piping.concentric_reducer;direction=south;fontFamily=Helvetica;horizontal=1;labelPosition=right;" vertex="1" parent="do8OBFAU8eJi8FT_Qq7B-1">
          <mxGeometry x="1021.9646428480332" y="583.72304789958" width="29.135374375939065" height="28.93382300161931" as="geometry" />
        </mxCell>
        <mxCell id="do8OBFAU8eJi8FT_Qq7B-13" value="TO ATM" style="edgeStyle=orthogonalEdgeStyle;rounded=0;orthogonalLoop=1;jettySize=auto;html=1;fontColor=#000000;exitX=1.026;exitY=0.699;exitDx=0;exitDy=0;exitPerimeter=0;labelPosition=center;verticalLabelPosition=middle;align=center;verticalAlign=middle;" edge="1" parent="do8OBFAU8eJi8FT_Qq7B-1" source="do8OBFAU8eJi8FT_Qq7B-14">
          <mxGeometry relative="1" as="geometry">
            <mxPoint x="1035" y="748" as="targetPoint" />
            <Array as="points">
              <mxPoint x="1035" y="748" />
            </Array>
            <mxPoint x="1168.8365969094173" y="577.3091413903298" as="sourcePoint" />
          </mxGeometry>
        </mxCell>
        <mxCell id="do8OBFAU8eJi8FT_Qq7B-14" value="NOSWIZARDS&lt;br&gt;SPRV" style="verticalLabelPosition=middle;align=right;html=1;verticalAlign=middle;pointerEvents=1;dashed=0;shape=mxgraph.pid2valves.valve;valveType=gate;actuator=spring;direction=south;horizontal=1;labelPosition=left;fontFamily=Helvetica;" vertex="1" parent="do8OBFAU8eJi8FT_Qq7B-1">
          <mxGeometry x="1016.6954748346452" y="644.9987966891927" width="61.764525165354804" height="63.21843295440655" as="geometry" />
        </mxCell>
        <mxCell id="do8OBFAU8eJi8FT_Qq7B-11" style="edgeStyle=orthogonalEdgeStyle;rounded=0;orthogonalLoop=1;jettySize=auto;html=1;entryX=-0.005;entryY=0.687;entryDx=0;entryDy=0;entryPerimeter=0;" edge="1" parent="do8OBFAU8eJi8FT_Qq7B-1" source="do8OBFAU8eJi8FT_Qq7B-12" target="do8OBFAU8eJi8FT_Qq7B-14">
          <mxGeometry relative="1" as="geometry" />
        </mxCell>
        <mxCell id="do8OBFAU8eJi8FT_Qq7B-18" value="&lt;table cellpadding=&quot;4&quot; cellspacing=&quot;0&quot; border=&quot;0&quot; style=&quot;font-size: 1em ; width: 100% ; height: 100%&quot;&gt;&lt;tbody&gt;&lt;tr&gt;&lt;td&gt;TT&lt;/td&gt;&lt;/tr&gt;&lt;tr&gt;&lt;td&gt;02&lt;/td&gt;&lt;/tr&gt;&lt;/tbody&gt;&lt;/table&gt; " style="html=1;outlineConnect=0;align=center;dashed=0;aspect=fixed;shape=mxgraph.pid2inst.discInst;mounting=room;fontColor=#000000;strokeColor=#000000;strokeWidth=1;fillColor=default;" vertex="1" parent="do8OBFAU8eJi8FT_Qq7B-1">
          <mxGeometry x="910.7726343935271" y="434.6065049679571" width="44.117517975253435" height="44.117517975253435" as="geometry" />
        </mxCell>
        <mxCell id="do8OBFAU8eJi8FT_Qq7B-19" value="TC&lt;br&gt;02&lt;br&gt; " style="html=1;outlineConnect=0;align=center;dashed=0;aspect=fixed;shape=mxgraph.pid2inst.progLogCont;mounting=field;fontColor=#000000;strokeColor=#000000;strokeWidth=1;fillColor=default;" vertex="1" parent="do8OBFAU8eJi8FT_Qq7B-1">
          <mxGeometry x="803.8935353466786" y="434.6065049679571" width="44.117517975253435" height="44.117517975253435" as="geometry" />
        </mxCell>
        <mxCell id="do8OBFAU8eJi8FT_Qq7B-20" style="edgeStyle=orthogonalEdgeStyle;rounded=0;orthogonalLoop=1;jettySize=auto;html=1;entryX=1;entryY=0.5;entryDx=0;entryDy=0;dashed=1;fontColor=#000000;" edge="1" parent="do8OBFAU8eJi8FT_Qq7B-1" source="do8OBFAU8eJi8FT_Qq7B-18" target="do8OBFAU8eJi8FT_Qq7B-19">
          <mxGeometry relative="1" as="geometry" />
        </mxCell>
        <mxCell id="do8OBFAU8eJi8FT_Qq7B-21" value="1/4&quot;SW -&lt;br&gt;1/8&quot;NPT" style="verticalLabelPosition=top;align=center;dashed=0;html=1;verticalAlign=bottom;shape=mxgraph.pid.piping.concentric_reducer;direction=west;fontFamily=Helvetica;horizontal=1;labelPosition=center;" vertex="1" parent="do8OBFAU8eJi8FT_Qq7B-1">
          <mxGeometry x="720.8595142609313" y="510.6329329769093" width="28.93382300161931" height="29.135374375939065" as="geometry" />
        </mxCell>
        <mxCell id="do8OBFAU8eJi8FT_Qq7B-22" value="&lt;table style=&quot;font-size: 1em ; width: 100% ; height: 100%&quot; cellspacing=&quot;0&quot; cellpadding=&quot;4&quot; border=&quot;0&quot;&gt;&lt;tbody&gt;&lt;tr&gt;&lt;td&gt;PT&lt;/td&gt;&lt;/tr&gt;&lt;tr&gt;&lt;td&gt;04&lt;/td&gt;&lt;/tr&gt;&lt;/tbody&gt;&lt;/table&gt; " style="html=1;outlineConnect=0;align=center;dashed=0;aspect=fixed;shape=mxgraph.pid2inst.discInst;mounting=room;fontColor=#000000;strokeColor=#000000;strokeWidth=1;fillColor=default;" vertex="1" parent="do8OBFAU8eJi8FT_Qq7B-1">
          <mxGeometry x="650.6045727927965" y="503.1444578902335" width="44.117517975253435" height="44.117517975253435" as="geometry" />
        </mxCell>
        <mxCell id="do8OBFAU8eJi8FT_Qq7B-23" style="edgeStyle=orthogonalEdgeStyle;rounded=0;orthogonalLoop=1;jettySize=auto;html=1;entryX=1;entryY=0.5;entryDx=0;entryDy=0;fontColor=#000000;" edge="1" parent="do8OBFAU8eJi8FT_Qq7B-1" source="do8OBFAU8eJi8FT_Qq7B-21" target="do8OBFAU8eJi8FT_Qq7B-22">
          <mxGeometry relative="1" as="geometry">
            <Array as="points">
              <mxPoint x="701.2500000000002" y="525.01" />
            </Array>
          </mxGeometry>
        </mxCell>
        <mxCell id="do8OBFAU8eJi8FT_Qq7B-24" value="3/8&quot;- 1/4&quot;-3/8&quot; TEE" style="shape=tee;whiteSpace=wrap;html=1;rotation=0;dx=12;dy=12;fontFamily=Helvetica;direction=west;flipV=0;verticalAlign=top;labelPosition=center;verticalLabelPosition=bottom;align=center;" vertex="1" parent="do8OBFAU8eJi8FT_Qq7B-1">
          <mxGeometry x="582.6789352670805" y="539.2517183374264" width="54.12218456971357" height="43.952699850725566" as="geometry" />
        </mxCell>
        <mxCell id="do8OBFAU8eJi8FT_Qq7B-25" value="SW 3/8&quot; QUICK&lt;br&gt;DISCONNECT" style="verticalLabelPosition=middle;align=right;dashed=0;html=1;verticalAlign=middle;shape=mxgraph.pid.piping.double_flange;pointerEvents=1;direction=south;labelPosition=left;horizontal=1;" vertex="1" parent="do8OBFAU8eJi8FT_Qq7B-1">
          <mxGeometry x="592.0962469078297" y="349.4405378315608" width="35.294014380202746" height="9.031204707772364" as="geometry" />
        </mxCell>
        <mxCell id="do8OBFAU8eJi8FT_Qq7B-26" value="" style="edgeStyle=orthogonalEdgeStyle;rounded=0;orthogonalLoop=1;jettySize=auto;html=1;entryX=0.5;entryY=1;entryDx=0;entryDy=0;entryPerimeter=0;fontColor=#000000;exitX=1.003;exitY=0.49;exitDx=0;exitDy=0;exitPerimeter=0;" edge="1" parent="do8OBFAU8eJi8FT_Qq7B-1" source="do8OBFAU8eJi8FT_Qq7B-27" target="do8OBFAU8eJi8FT_Qq7B-24">
          <mxGeometry relative="1" as="geometry">
            <mxPoint x="609.7211095394566" y="505.99770609858365" as="sourcePoint" />
          </mxGeometry>
        </mxCell>
        <mxCell id="do8OBFAU8eJi8FT_Qq7B-27" value="1/4&quot; CHECK&lt;br&gt;VALVE" style="verticalLabelPosition=top;align=center;html=1;verticalAlign=middle;pointerEvents=1;dashed=0;shape=mxgraph.pid2valves.valve;valveType=check;rotation=90;labelPosition=center;horizontal=0;direction=east;flipV=0;" vertex="1" parent="do8OBFAU8eJi8FT_Qq7B-1">
          <mxGeometry x="584.8080329383176" y="457.3798306179824" width="49.870442319226484" height="31.92530864197531" as="geometry" />
        </mxCell>
        <mxCell id="do8OBFAU8eJi8FT_Qq7B-28" value="" style="edgeStyle=orthogonalEdgeStyle;rounded=0;orthogonalLoop=1;jettySize=auto;html=1;entryX=0;entryY=0.5;entryDx=0;entryDy=0;entryPerimeter=0;fontColor=#000000;" edge="1" parent="do8OBFAU8eJi8FT_Qq7B-1" source="do8OBFAU8eJi8FT_Qq7B-25" target="do8OBFAU8eJi8FT_Qq7B-64">
          <mxGeometry relative="1" as="geometry" />
        </mxCell>
        <mxCell id="do8OBFAU8eJi8FT_Qq7B-29" value="" style="shape=flexArrow;endArrow=classic;html=1;rounded=0;fontColor=#000000;" edge="1" parent="do8OBFAU8eJi8FT_Qq7B-1">
          <mxGeometry width="50" height="50" relative="1" as="geometry">
            <mxPoint x="609.3220793570624" y="251.7698550648716" as="sourcePoint" />
            <mxPoint x="609.3220793570624" y="305.95708331150564" as="targetPoint" />
          </mxGeometry>
        </mxCell>
        <mxCell id="do8OBFAU8eJi8FT_Qq7B-30" value="" style="endArrow=classic;html=1;rounded=0;fontColor=#000000;entryX=0.1;entryY=0.5;entryDx=0;entryDy=0;entryPerimeter=0;" edge="1" parent="do8OBFAU8eJi8FT_Qq7B-1" target="do8OBFAU8eJi8FT_Qq7B-25">
          <mxGeometry width="50" height="50" relative="1" as="geometry">
            <mxPoint x="609.7800000000004" y="308.96" as="sourcePoint" />
            <mxPoint x="688.5636117125187" y="338.9469237082438" as="targetPoint" />
            <Array as="points">
              <mxPoint x="609.7" y="327.58" />
            </Array>
          </mxGeometry>
        </mxCell>
        <mxCell id="do8OBFAU8eJi8FT_Qq7B-31" value="&lt;div style=&quot;text-align: center&quot;&gt;&lt;span&gt;FROM&lt;/span&gt;&lt;/div&gt;&lt;div style=&quot;text-align: center&quot;&gt;&lt;span&gt;GROUND&lt;/span&gt;&lt;/div&gt;" style="text;strokeColor=none;fillColor=none;align=left;verticalAlign=middle;spacingLeft=4;spacingRight=4;overflow=hidden;points=[[0,0.5],[1,0.5]];portConstraint=eastwest;rotatable=0;fontColor=#000000;html=1;" vertex="1" parent="do8OBFAU8eJi8FT_Qq7B-1">
          <mxGeometry x="575" y="217.57999999999998" width="69.48" height="37.09" as="geometry" />
        </mxCell>
        <mxCell id="do8OBFAU8eJi8FT_Qq7B-37" style="edgeStyle=orthogonalEdgeStyle;rounded=0;orthogonalLoop=1;jettySize=auto;html=1;fontColor=#000000;" edge="1" parent="do8OBFAU8eJi8FT_Qq7B-1" source="do8OBFAU8eJi8FT_Qq7B-8" target="do8OBFAU8eJi8FT_Qq7B-47">
          <mxGeometry relative="1" as="geometry">
            <mxPoint x="1035.344549101178" y="400.522453943807" as="targetPoint" />
          </mxGeometry>
        </mxCell>
        <mxCell id="do8OBFAU8eJi8FT_Qq7B-43" value="MC&lt;br&gt;02&lt;br&gt; " style="html=1;outlineConnect=0;align=center;dashed=0;aspect=fixed;shape=mxgraph.pid2inst.progLogCont;mounting=field;fontColor=#000000;strokeColor=#000000;strokeWidth=1;fillColor=default;" vertex="1" parent="do8OBFAU8eJi8FT_Qq7B-1">
          <mxGeometry x="1076.9335353466784" y="353.20650496795724" width="44.117517975253435" height="44.117517975253435" as="geometry" />
        </mxCell>
        <mxCell id="do8OBFAU8eJi8FT_Qq7B-47" value="VENT&lt;br&gt;BALL VALVE" style="verticalLabelPosition=middle;align=right;html=1;verticalAlign=middle;pointerEvents=1;dashed=0;shape=mxgraph.pid2valves.valve;valveType=ball;direction=south;fontFamily=Helvetica;horizontal=1;labelPosition=left;" vertex="1" parent="do8OBFAU8eJi8FT_Qq7B-1">
          <mxGeometry x="1016.6972610515866" y="344.7321113224497" width="37.497561946670864" height="61.0674683813458" as="geometry" />
        </mxCell>
        <mxCell id="do8OBFAU8eJi8FT_Qq7B-42" style="edgeStyle=orthogonalEdgeStyle;rounded=0;orthogonalLoop=1;jettySize=auto;html=1;dashed=1;fontColor=#000000;entryX=0.505;entryY=0.17;entryDx=0;entryDy=0;entryPerimeter=0;" edge="1" parent="do8OBFAU8eJi8FT_Qq7B-1" source="do8OBFAU8eJi8FT_Qq7B-43" target="do8OBFAU8eJi8FT_Qq7B-47">
          <mxGeometry relative="1" as="geometry">
            <mxPoint x="1084.9300000000007" y="369.05000000000007" as="targetPoint" />
          </mxGeometry>
        </mxCell>
        <mxCell id="do8OBFAU8eJi8FT_Qq7B-48" value="M" style="text;html=1;strokeColor=none;fillColor=none;align=center;verticalAlign=middle;whiteSpace=wrap;rounded=0;fontColor=#000000;" vertex="1" parent="do8OBFAU8eJi8FT_Qq7B-1">
          <mxGeometry x="1030.1000000000001" y="371.58000000000004" width="10.7" height="8.2" as="geometry" />
        </mxCell>
        <mxCell id="do8OBFAU8eJi8FT_Qq7B-49" style="edgeStyle=orthogonalEdgeStyle;rounded=0;orthogonalLoop=1;jettySize=auto;html=1;entryX=0.5;entryY=1;entryDx=0;entryDy=0;dashed=1;fontColor=#000000;exitX=0.938;exitY=0.701;exitDx=0;exitDy=0;exitPerimeter=0;" edge="1" parent="do8OBFAU8eJi8FT_Qq7B-1" source="do8OBFAU8eJi8FT_Qq7B-5" target="do8OBFAU8eJi8FT_Qq7B-18">
          <mxGeometry relative="1" as="geometry">
            <mxPoint x="920.7726343935271" y="466.66666666666663" as="sourcePoint" />
            <mxPoint x="858.011053321932" y="466.6652639555838" as="targetPoint" />
            <Array as="points">
              <mxPoint x="920.6000000000001" y="496" />
              <mxPoint x="932.6000000000001" y="496" />
            </Array>
          </mxGeometry>
        </mxCell>
        <mxCell id="do8OBFAU8eJi8FT_Qq7B-50" style="edgeStyle=orthogonalEdgeStyle;rounded=0;orthogonalLoop=1;jettySize=auto;html=1;entryX=0.941;entryY=0.318;entryDx=0;entryDy=0;dashed=1;fontColor=#000000;exitX=0.5;exitY=1;exitDx=0;exitDy=0;entryPerimeter=0;" edge="1" parent="do8OBFAU8eJi8FT_Qq7B-1" source="do8OBFAU8eJi8FT_Qq7B-19" target="do8OBFAU8eJi8FT_Qq7B-5">
          <mxGeometry relative="1" as="geometry">
            <mxPoint x="920.7726343935271" y="466.64367816091965" as="sourcePoint" />
            <mxPoint x="858.0110533219324" y="466.6652639555838" as="targetPoint" />
            <Array as="points">
              <mxPoint x="825.6000000000001" y="496" />
            </Array>
          </mxGeometry>
        </mxCell>
        <mxCell id="do8OBFAU8eJi8FT_Qq7B-57" value="" style="group" vertex="1" connectable="0" parent="do8OBFAU8eJi8FT_Qq7B-1">
          <mxGeometry x="773.0092735118067" y="88.00000000000023" width="165.00072648819344" height="157.0899999999998" as="geometry" />
        </mxCell>
        <mxCell id="do8OBFAU8eJi8FT_Qq7B-58" value="GATEWAY" style="rounded=1;whiteSpace=wrap;html=1;fontColor=#000000;strokeColor=#000000;strokeWidth=1;fillColor=default;" vertex="1" parent="do8OBFAU8eJi8FT_Qq7B-57">
          <mxGeometry y="102.90277175336564" width="105.88204314060825" height="54.187228246634184" as="geometry" />
        </mxCell>
        <mxCell id="do8OBFAU8eJi8FT_Qq7B-59" value="" style="group" vertex="1" connectable="0" parent="do8OBFAU8eJi8FT_Qq7B-57">
          <mxGeometry x="52.77072648819296" width="112.23000000000047" height="60" as="geometry" />
        </mxCell>
        <mxCell id="do8OBFAU8eJi8FT_Qq7B-60" style="edgeStyle=orthogonalEdgeStyle;rounded=0;orthogonalLoop=1;jettySize=auto;html=1;dashed=1;fontSize=12;startArrow=classic;startFill=1;endArrow=none;endFill=0;" edge="1" parent="do8OBFAU8eJi8FT_Qq7B-59" source="do8OBFAU8eJi8FT_Qq7B-58">
          <mxGeometry relative="1" as="geometry">
            <mxPoint x="0.17029508211123812" y="59.99999999999977" as="targetPoint" />
          </mxGeometry>
        </mxCell>
        <mxCell id="do8OBFAU8eJi8FT_Qq7B-61" value="" style="shape=flexArrow;endArrow=classic;html=1;rounded=0;fontColor=#000000;" edge="1" parent="do8OBFAU8eJi8FT_Qq7B-59">
          <mxGeometry width="50" height="50" relative="1" as="geometry">
            <mxPoint as="sourcePoint" />
            <mxPoint y="60" as="targetPoint" />
          </mxGeometry>
        </mxCell>
        <mxCell id="do8OBFAU8eJi8FT_Qq7B-62" value="GROUND&lt;br&gt;STATION&lt;br&gt;COMMANDS" style="text;html=1;align=center;verticalAlign=middle;resizable=0;points=[];autosize=1;strokeColor=none;fillColor=none;fontSize=12;" vertex="1" parent="do8OBFAU8eJi8FT_Qq7B-59">
          <mxGeometry x="22.230000000000473" y="9.999999999999773" width="90" height="50" as="geometry" />
        </mxCell>
        <mxCell id="do8OBFAU8eJi8FT_Qq7B-17" style="edgeStyle=orthogonalEdgeStyle;rounded=0;orthogonalLoop=1;jettySize=auto;html=1;exitX=0.5;exitY=1;exitDx=0;exitDy=0;dashed=1;fontSize=12;startArrow=none;startFill=0;endArrow=classic;endFill=1;" edge="1" parent="do8OBFAU8eJi8FT_Qq7B-1" source="do8OBFAU8eJi8FT_Qq7B-58" target="do8OBFAU8eJi8FT_Qq7B-19">
          <mxGeometry relative="1" as="geometry">
            <Array as="points" />
          </mxGeometry>
        </mxCell>
        <mxCell id="do8OBFAU8eJi8FT_Qq7B-16" style="edgeStyle=orthogonalEdgeStyle;rounded=0;orthogonalLoop=1;jettySize=auto;html=1;exitX=0;exitY=0.75;exitDx=0;exitDy=0;dashed=1;fontSize=12;startArrow=none;startFill=0;endArrow=classic;endFill=1;" edge="1" parent="do8OBFAU8eJi8FT_Qq7B-1" source="do8OBFAU8eJi8FT_Qq7B-58" target="do8OBFAU8eJi8FT_Qq7B-22">
          <mxGeometry relative="1" as="geometry" />
        </mxCell>
        <mxCell id="do8OBFAU8eJi8FT_Qq7B-15" style="edgeStyle=orthogonalEdgeStyle;rounded=0;orthogonalLoop=1;jettySize=auto;html=1;fontSize=12;endArrow=classic;endFill=1;dashed=1;" edge="1" parent="do8OBFAU8eJi8FT_Qq7B-1" source="do8OBFAU8eJi8FT_Qq7B-58" target="do8OBFAU8eJi8FT_Qq7B-43">
          <mxGeometry relative="1" as="geometry" />
        </mxCell>
        <mxCell id="do8OBFAU8eJi8FT_Qq7B-63" style="edgeStyle=orthogonalEdgeStyle;rounded=0;orthogonalLoop=1;jettySize=auto;html=1;entryX=-0.02;entryY=0.508;entryDx=0;entryDy=0;entryPerimeter=0;" edge="1" parent="do8OBFAU8eJi8FT_Qq7B-1" source="do8OBFAU8eJi8FT_Qq7B-64" target="do8OBFAU8eJi8FT_Qq7B-27">
          <mxGeometry relative="1" as="geometry" />
        </mxCell>
        <mxCell id="do8OBFAU8eJi8FT_Qq7B-64" value="3/8&quot;SW -&amp;nbsp;&lt;br&gt;1/4&quot;SW" style="verticalLabelPosition=middle;align=right;dashed=0;html=1;verticalAlign=middle;shape=mxgraph.pid.piping.concentric_reducer;direction=south;fontFamily=Helvetica;horizontal=1;labelPosition=left;" vertex="1" parent="do8OBFAU8eJi8FT_Qq7B-1">
          <mxGeometry x="595.1731918381122" y="392.6916001198813" width="29.135374375939065" height="28.93382300161931" as="geometry" />
        </mxCell>
        <mxCell id="do8OBFAU8eJi8FT_Qq7B-65" style="edgeStyle=orthogonalEdgeStyle;rounded=0;orthogonalLoop=1;jettySize=auto;html=1;entryX=0;entryY=0.5;entryDx=0;entryDy=0;entryPerimeter=0;exitX=0;exitY=0;exitDx=54.12218456971357;exitDy=6;exitPerimeter=0;" edge="1" parent="do8OBFAU8eJi8FT_Qq7B-1" source="do8OBFAU8eJi8FT_Qq7B-66" target="do8OBFAU8eJi8FT_Qq7B-12">
          <mxGeometry relative="1" as="geometry" />
        </mxCell>
        <mxCell id="do8OBFAU8eJi8FT_Qq7B-66" value="1/4&quot; TEE" style="shape=tee;whiteSpace=wrap;html=1;rotation=0;dx=12;dy=12;fontFamily=Helvetica;direction=south;flipV=0;verticalAlign=middle;labelPosition=right;verticalLabelPosition=middle;align=left;" vertex="1" parent="do8OBFAU8eJi8FT_Qq7B-1">
          <mxGeometry x="997.9236776265748" y="510.63697597793237" width="43.952699850725566" height="54.12218456971357" as="geometry" />
        </mxCell>
        <mxCell id="do8OBFAU8eJi8FT_Qq7B-4" style="edgeStyle=orthogonalEdgeStyle;rounded=0;orthogonalLoop=1;jettySize=auto;html=1;entryX=0.5;entryY=1;entryDx=0;entryDy=0;entryPerimeter=0;" edge="1" parent="do8OBFAU8eJi8FT_Qq7B-1" source="do8OBFAU8eJi8FT_Qq7B-5" target="do8OBFAU8eJi8FT_Qq7B-66">
          <mxGeometry relative="1" as="geometry">
            <Array as="points">
              <mxPoint x="997.7" y="538" />
            </Array>
          </mxGeometry>
        </mxCell>
        <mxCell id="kqchYAZ20qUO-iVt_MaB-7" style="edgeStyle=orthogonalEdgeStyle;rounded=0;orthogonalLoop=1;jettySize=auto;html=1;exitX=0.25;exitY=0;exitDx=0;exitDy=0;entryX=0.5;entryY=0;entryDx=0;entryDy=0;dashed=1;" edge="1" parent="do8OBFAU8eJi8FT_Qq7B-1" source="do8OBFAU8eJi8FT_Qq7B-58" target="do8OBFAU8eJi8FT_Qq7B-68">
          <mxGeometry relative="1" as="geometry" />
        </mxCell>
        <mxCell id="kqchYAZ20qUO-iVt_MaB-9" style="edgeStyle=orthogonalEdgeStyle;rounded=0;orthogonalLoop=1;jettySize=auto;html=1;entryX=0;entryY=0.5;entryDx=0;entryDy=0;entryPerimeter=0;exitX=0;exitY=0;exitDx=54.12218456971357;exitDy=6;exitPerimeter=0;" edge="1" parent="do8OBFAU8eJi8FT_Qq7B-1" source="kqchYAZ20qUO-iVt_MaB-8" target="do8OBFAU8eJi8FT_Qq7B-40">
          <mxGeometry relative="1" as="geometry" />
        </mxCell>
        <mxCell id="kqchYAZ20qUO-iVt_MaB-8" value="3/8&quot;- 1/4&quot;-3/8&quot; TEE" style="shape=tee;whiteSpace=wrap;html=1;rotation=0;dx=12;dy=12;fontFamily=Helvetica;direction=west;flipV=1;verticalAlign=bottom;labelPosition=center;verticalLabelPosition=top;align=center;" vertex="1" parent="do8OBFAU8eJi8FT_Qq7B-1">
          <mxGeometry x="184.99893526708047" y="571.0017183374264" width="54.12218456971357" height="43.952699850725566" as="geometry" />
        </mxCell>
        <mxCell id="kqchYAZ20qUO-iVt_MaB-11" style="edgeStyle=orthogonalEdgeStyle;rounded=0;orthogonalLoop=1;jettySize=auto;html=1;entryX=0;entryY=0.5;entryDx=0;entryDy=0;entryPerimeter=0;" edge="1" parent="do8OBFAU8eJi8FT_Qq7B-1" source="kqchYAZ20qUO-iVt_MaB-12" target="kqchYAZ20qUO-iVt_MaB-13">
          <mxGeometry relative="1" as="geometry" />
        </mxCell>
        <mxCell id="kqchYAZ20qUO-iVt_MaB-12" value="&lt;table style=&quot;font-size: 1em ; width: 100% ; height: 100%&quot; cellspacing=&quot;0&quot; cellpadding=&quot;4&quot; border=&quot;0&quot;&gt;&lt;tbody&gt;&lt;tr&gt;&lt;td&gt;PT&lt;/td&gt;&lt;/tr&gt;&lt;tr&gt;&lt;td&gt;02&lt;/td&gt;&lt;/tr&gt;&lt;/tbody&gt;&lt;/table&gt; " style="html=1;outlineConnect=0;align=center;dashed=0;aspect=fixed;shape=mxgraph.pid2inst.discInst;mounting=room;fontColor=#000000;strokeColor=#000000;strokeWidth=1;fillColor=default;" vertex="1" parent="do8OBFAU8eJi8FT_Qq7B-1">
          <mxGeometry x="190.00457279279647" y="688.0044578902335" width="44.117517975253435" height="44.117517975253435" as="geometry" />
        </mxCell>
        <mxCell id="kqchYAZ20qUO-iVt_MaB-14" style="edgeStyle=orthogonalEdgeStyle;rounded=0;orthogonalLoop=1;jettySize=auto;html=1;entryX=0.5;entryY=1;entryDx=0;entryDy=0;entryPerimeter=0;" edge="1" parent="do8OBFAU8eJi8FT_Qq7B-1" source="kqchYAZ20qUO-iVt_MaB-13" target="kqchYAZ20qUO-iVt_MaB-8">
          <mxGeometry relative="1" as="geometry" />
        </mxCell>
        <mxCell id="kqchYAZ20qUO-iVt_MaB-13" value="1/8&quot;NPT -&lt;br&gt;1/4&quot;SW" style="verticalLabelPosition=middle;align=left;dashed=0;html=1;verticalAlign=middle;shape=mxgraph.pid.piping.concentric_reducer;direction=north;fontFamily=Helvetica;horizontal=1;labelPosition=right;" vertex="1" parent="do8OBFAU8eJi8FT_Qq7B-1">
          <mxGeometry x="197.49260915194657" y="638.0016001198812" width="29.135374375939065" height="28.93382300161931" as="geometry" />
        </mxCell>
        <mxCell id="kqchYAZ20qUO-iVt_MaB-15" style="edgeStyle=orthogonalEdgeStyle;rounded=0;orthogonalLoop=1;jettySize=auto;html=1;exitX=1;exitY=0.25;exitDx=0;exitDy=0;entryX=0.5;entryY=1;entryDx=0;entryDy=0;dashed=1;" edge="1" parent="do8OBFAU8eJi8FT_Qq7B-1" source="do8OBFAU8eJi8FT_Qq7B-58" target="kqchYAZ20qUO-iVt_MaB-12">
          <mxGeometry relative="1" as="geometry">
            <mxPoint x="669.5238095238095" y="618" as="targetPoint" />
            <Array as="points">
              <mxPoint x="1140" y="204" />
              <mxPoint x="1140" y="758" />
              <mxPoint x="212" y="758" />
            </Array>
          </mxGeometry>
        </mxCell>
      </root>
    </mxGraphModel>
  </diagram>
</mxfile>
